<?xml version="1.0" encoding="UTF-8" standalone="no"?>
<svg width="128px" height="66px" viewBox="0 0 128 66" version="1.1" xmlns="http://www.w3.org/2000/svg" xmlns:xlink="http://www.w3.org/1999/xlink" xmlns:sketch="http://www.bohemiancoding.com/sketch/ns">
    <!-- Generator: Sketch 3.1.1 (8761) - http://www.bohemiancoding.com/sketch -->
    <title>audio</title>
    <desc>Created with Sketch.</desc>
    <defs></defs>
    <g id="Page" stroke="none" stroke-width="1" fill="none" fill-rule="evenodd" sketch:type="MSPage">
        <g id="Desktop-HD-2" sketch:type="MSArtboardGroup" transform="translate(-956.000000, -3480.000000)" fill="#00ADEE">
            <path d="M974.885246,3514.32426 C968.661508,3514.32426 963.600262,3519.46161 963.600262,3525.77419 C963.600262,3532.08677 968.661508,3537.22413 974.885246,3537.22413 C981.108984,3537.22413 986.17023,3532.08677 986.17023,3525.77419 C986.17023,3519.46161 981.108984,3514.32426 974.885246,3514.32426 L974.885246,3514.32426 Z M993.770492,3541.74194 L993.770492,3484.25806 C993.770492,3481.90548 991.892459,3480 989.57377,3480 L960.196721,3480 C957.878033,3480 956,3481.90548 956,3484.25806 L956,3541.74194 C956,3544.09452 957.878033,3546 960.196721,3546 L989.57377,3546 C991.892459,3546 993.770492,3544.09452 993.770492,3541.74194 Z M974.885246,3531.09677 C971.98741,3531.09677 969.639344,3528.71439 969.639344,3525.77419 C969.639344,3522.834 971.98741,3520.45161 974.885246,3520.45161 C977.783082,3520.45161 980.131148,3522.834 980.131148,3525.77419 C980.131148,3528.71439 977.783082,3531.09677 974.885246,3531.09677 Z M974.885246,3490.64516 C977.783082,3490.64516 980.131148,3493.02755 980.131148,3495.96774 C980.131148,3498.90794 977.783082,3501.29032 974.885246,3501.29032 C971.98741,3501.29032 969.639344,3498.90794 969.639344,3495.96774 C969.639344,3493.02755 971.98741,3490.64516 974.885246,3490.64516 L974.885246,3490.64516 Z M974.885246,3539.5171 C967.41718,3539.5171 961.340328,3533.35142 961.340328,3525.77419 C961.340328,3518.19697 967.41718,3512.03129 974.885246,3512.03129 C982.353311,3512.03129 988.430164,3518.19697 988.430164,3525.77419 C988.430164,3533.35142 982.353311,3539.5171 974.885246,3539.5171 Z M1042.03279,3535.35484 L1042.03279,3528.96774 L997.967213,3528.96774 L997.967213,3535.35484 C997.967213,3537.70742 999.845246,3539.6129 1002.16393,3539.6129 L1037.83607,3539.6129 C1040.15475,3539.6129 1042.03279,3537.70742 1042.03279,3535.35484 Z M1042.03279,3511.93548 C1042.03279,3509.5829 1040.15475,3507.67742 1037.83607,3507.67742 L1002.16393,3507.67742 C999.845246,3507.67742 997.967213,3509.5829 997.967213,3511.93548 L997.967213,3526.83871 L1042.03279,3526.83871 L1042.03279,3511.93548 Z M1023.14754,3522.58065 L1002.16393,3522.58065 L1002.16393,3511.93548 L1023.14754,3511.93548 L1023.14754,3522.58065 L1023.14754,3522.58065 Z M1031.54098,3522.58065 C1028.64315,3522.58065 1026.29508,3520.19826 1026.29508,3517.25806 C1026.29508,3514.31787 1028.64315,3511.93548 1031.54098,3511.93548 C1034.43882,3511.93548 1036.78689,3514.31787 1036.78689,3517.25806 C1036.78689,3520.19826 1034.43882,3522.58065 1031.54098,3522.58065 L1031.54098,3522.58065 Z M1065.11475,3514.32426 C1058.89102,3514.32426 1053.82977,3519.46161 1053.82977,3525.77419 C1053.82977,3532.08677 1058.89311,3537.22413 1065.11475,3537.22413 C1071.33639,3537.22413 1076.39974,3532.08677 1076.39974,3525.77419 C1076.39974,3519.46161 1071.33849,3514.32426 1065.11475,3514.32426 L1065.11475,3514.32426 Z M1079.80328,3480 L1050.42623,3480 C1048.10754,3480 1046.22951,3481.90548 1046.22951,3484.25806 L1046.22951,3541.74194 C1046.22951,3544.09452 1048.10754,3546 1050.42623,3546 L1079.80328,3546 C1082.12197,3546 1084,3544.09452 1084,3541.74194 L1084,3484.25806 C1084,3481.90548 1082.12197,3480 1079.80328,3480 Z M1065.11475,3531.09677 C1062.21692,3531.09677 1059.86885,3528.71439 1059.86885,3525.77419 C1059.86885,3522.834 1062.21692,3520.45161 1065.11475,3520.45161 C1068.01259,3520.45161 1070.36066,3522.834 1070.36066,3525.77419 C1070.36066,3528.71439 1068.01259,3531.09677 1065.11475,3531.09677 Z M1065.11475,3490.64516 C1068.01259,3490.64516 1070.36066,3493.02755 1070.36066,3495.96774 C1070.36066,3498.90794 1068.01259,3501.29032 1065.11475,3501.29032 C1062.21692,3501.29032 1059.86885,3498.90794 1059.86885,3495.96774 C1059.86885,3493.02755 1062.21692,3490.64516 1065.11475,3490.64516 L1065.11475,3490.64516 Z M1065.11475,3539.5171 C1057.64669,3539.5171 1051.56984,3533.35142 1051.56984,3525.77419 C1051.56984,3518.19697 1057.64669,3512.03129 1065.11475,3512.03129 C1072.58282,3512.03129 1078.65967,3518.19697 1078.65967,3525.77419 C1078.65967,3533.35142 1072.58282,3539.5171 1065.11475,3539.5171 Z M1002.16393,3541.74194 L1002.16393,3546 L1010.55738,3546 L1010.55738,3541.74194 L1002.16393,3541.74194 Z M1029.44262,3541.74194 L1029.44262,3546 L1037.83607,3546 L1037.83607,3541.74194 L1029.44262,3541.74194 Z" id="audio" sketch:type="MSShapeGroup"></path>
        </g>
    </g>
</svg>