<?xml version="1.0" encoding="utf-8"?>
<!-- Generator: Adobe Illustrator 17.1.0, SVG Export Plug-In . SVG Version: 6.00 Build 0)  -->
<!DOCTYPE svg PUBLIC "-//W3C//DTD SVG 1.1//EN" "http://www.w3.org/Graphics/SVG/1.1/DTD/svg11.dtd">
<svg version="1.1" xmlns="http://www.w3.org/2000/svg" xmlns:xlink="http://www.w3.org/1999/xlink" x="0px" y="0px"
	 viewBox="0 0 144 144" enable-background="new 0 0 144 144" xml:space="preserve">
<g id="back">
</g>
<g id="illustration">
	<circle fill="#82C250" cx="72" cy="72" r="72"/>
	<g>
		<path fill="#FFFFFF" d="M71.599,79.585c-5.457,0-9.897,4.44-9.897,9.897c0,5.457,4.44,9.897,9.897,9.897
			c5.457,0,9.898-4.44,9.898-9.897C81.497,84.024,77.056,79.585,71.599,79.585z M71.599,94.379c-2.7,0-4.897-2.197-4.897-4.897
			c0-2.701,2.197-4.897,4.897-4.897s4.898,2.197,4.898,4.897C76.497,92.182,74.299,94.379,71.599,94.379z"/>
		<path fill="#FFFFFF" d="M112.323,58.08c0-4.278-0.728-8.622-2.162-12.909c-0.005-0.014-0.013-0.026-0.018-0.04
			c-0.034-0.095-0.08-0.186-0.125-0.277c-0.03-0.059-0.055-0.121-0.089-0.177c-0.042-0.07-0.095-0.135-0.146-0.202
			c-0.051-0.068-0.1-0.138-0.157-0.2c-0.012-0.013-0.02-0.029-0.033-0.042c-8.599-8.948-20.671-13.115-37.993-13.115
			s-29.396,4.167-37.995,13.115c-0.012,0.012-0.019,0.026-0.03,0.039c-0.065,0.07-0.12,0.148-0.176,0.225
			c-0.042,0.058-0.089,0.114-0.125,0.174c-0.042,0.069-0.073,0.144-0.109,0.218c-0.037,0.078-0.077,0.154-0.106,0.235
			c-0.006,0.018-0.017,0.032-0.022,0.05c-1.334,3.991-2.16,7.375-2.16,11.908c0,7.711,2.234,15.927,6.003,22.158
			c-0.012,0.357-0.018,0.715-0.018,1.075c0,19.154,15.584,34.737,34.738,34.737s34.737-15.583,34.737-34.737
			c0-0.358-0.006-0.716-0.017-1.071C110.25,72.815,112.323,65.517,112.323,58.08z M35.875,57.08c0-3.666,0.631-6.419,1.72-9.76
			c7.576-7.634,18.397-11.203,34.005-11.203c15.6,0,26.417,3.566,33.991,11.192c1.145,3.594,1.731,7.215,1.731,10.771
			c0,4.293-0.798,8.533-2.324,12.542c-4.2-14.509-17.846-25.346-33.399-25.346c-15.495,0-29.098,10.756-33.353,25.183
			C36.727,66.232,35.875,61.567,35.875,57.08z M71.599,110.05c-8.945,0-16.973-3.975-22.429-10.245
			c3.597-4.071,4.89-10.064,6.139-15.872c2.175-10.113,4.053-18.847,16.29-18.847c11.842,0,13.279,6.852,15.268,16.336
			c1.27,6.048,2.712,12.89,7.582,17.897C88.99,105.871,80.775,110.05,71.599,110.05z M97.375,95.114
			c-3.348-3.935-4.499-9.409-5.613-14.718c-1.997-9.52-4.261-20.309-20.162-20.309c-16.276,0-18.994,12.64-21.178,22.795
			c-1.06,4.928-2.071,9.615-4.305,12.742c-2.699-4.475-4.256-9.715-4.256-15.311c0-0.54,0.017-1.075,0.044-1.607l0.043-0.8
			l-0.002-0.003C43.049,62.623,56.239,50.276,71.6,50.276c15.36,0,28.55,12.346,29.653,27.625l-0.004,0.006l0.044,0.803
			c0.028,0.531,0.044,1.065,0.044,1.604C101.336,85.7,99.889,90.752,97.375,95.114z"/>
	</g>
</g>
</svg>
