<?xml version="1.0" encoding="UTF-8" standalone="no"?>
<svg width="129px" height="92px" viewBox="0 0 129 92" version="1.1" xmlns="http://www.w3.org/2000/svg" xmlns:xlink="http://www.w3.org/1999/xlink" xmlns:sketch="http://www.bohemiancoding.com/sketch/ns">
    <!-- Generator: Sketch 3.1.1 (8761) - http://www.bohemiancoding.com/sketch -->
    <title>cctv</title>
    <desc>Created with Sketch.</desc>
    <defs></defs>
    <g id="Page" stroke="none" stroke-width="1" fill="none" fill-rule="evenodd" sketch:type="MSPage">
        <g id="Desktop-HD-2" sketch:type="MSArtboardGroup" transform="translate(-955.000000, -3303.000000)" fill="#00ADEE">
            <path d="M966.311411,3364.57003 C964.585432,3363.42281 962.436379,3361.99526 963.453642,3354.34306 C963.522358,3353.82457 963.290611,3353.31288 962.859453,3353.02437 C962.700463,3352.91959 961.266863,3351.99828 959.701221,3351.99828 C958.675874,3351.99828 957.793347,3352.38612 957.146611,3353.121 C956.072758,3354.3417 955.726484,3356.43473 956.090274,3359.51711 C957.111579,3368.21717 961.234526,3369.72638 962.449853,3369.98223 C963.026526,3370.26257 964.664926,3370.99336 966.058105,3370.99336 C967.188547,3370.99336 967.832589,3370.5225 968.173474,3370.12784 C968.688168,3369.53178 968.880842,3368.72478 968.747453,3367.72726 C968.5184,3366.03569 967.346189,3365.25727 966.311411,3364.57003 Z M984.3392,3363.17786 C984.3392,3362.58043 983.952505,3362.05105 983.385263,3361.87686 C982.819368,3361.69723 982.204968,3361.92041 981.873516,3362.41849 C980.910147,3363.8651 979.985853,3364.66121 979.269053,3364.66121 C977.568674,3364.66121 975.562442,3360.23429 974.767495,3357.03895 C974.603116,3356.37485 973.983326,3355.93665 973.302905,3356.0183 C972.657516,3356.09587 972.017516,3356.13397 971.396379,3356.13397 C968.049516,3356.13397 966.172632,3355.00309 966.161853,3354.99764 C965.746863,3354.73363 965.222737,3354.7173 964.792926,3354.95682 C964.363116,3355.19633 964.094989,3355.65358 964.094989,3356.14894 C964.094989,3360.66841 967.52,3365.89688 969.834779,3368.0076 C973.146611,3371.02194 975.899284,3372.48624 978.250442,3372.48624 C983.056505,3372.4876 984.3392,3366.63584 984.3392,3363.17786 Z M970.486905,3355.28751 C973.673432,3355.28751 977.377347,3354.18384 981.4976,3352.00916 C994.661389,3345.05918 1052.02291,3314.27348 1052.56051,3313.98498 C1053.26787,3313.63523 1056.80876,3311.75586 1056.88825,3309.11849 C1056.91655,3308.20534 1056.54063,3306.88393 1054.59907,3305.7721 L1050.05979,3303.17555 C1049.65558,3302.9442 1049.16514,3302.9374 1048.75823,3303.16058 L962.992842,3349.6045 C962.673516,3349.77733 962.436379,3350.07264 962.335326,3350.42511 C962.235621,3350.77757 962.278737,3351.15453 962.457937,3351.47434 C962.544168,3351.62812 964.660884,3355.28751 970.486905,3355.28751 Z M1056.02055,3320.04631 L1053.60067,3315.6153 C1053.24362,3314.96208 1052.4352,3314.72393 1051.78038,3315.07504 L981.2928,3353.42311 C980.914189,3353.62996 980.654147,3354.00829 980.596211,3354.43832 C980.538274,3354.86972 980.687832,3355.30384 981.000421,3355.60459 C981.065095,3355.66719 987.492042,3361.96804 985.786274,3367.67282 C985.628632,3368.19948 985.799747,3368.76833 986.220126,3369.11807 C986.466695,3369.3222 986.769853,3369.42835 987.075705,3369.42835 C987.291284,3369.42835 987.508211,3369.37664 987.707621,3369.27049 L1046.69945,3337.6465 C1047.15486,3337.40154 1047.43242,3336.91707 1047.41356,3336.39721 C1047.41086,3336.3142 1047.23301,3328.17073 1055.64733,3321.79503 C1056.18627,3321.38677 1056.34526,3320.64101 1056.02055,3320.04631 Z M1033.32547,3345.93966 L1013.50973,3356.78855 C1013.03949,3357.0444 1012.76463,3357.55881 1012.80909,3358.09771 C1012.99638,3360.36901 1018.63512,3369.44604 1026.36901,3369.44604 C1028.77002,3369.44604 1031.13869,3368.57781 1033.41036,3366.86583 C1036.52952,3364.51424 1038.32421,3361.62102 1038.74459,3358.26782 C1039.52741,3352.02277 1035.20101,3346.51395 1035.01642,3346.2826 C1034.60817,3345.77092 1033.89811,3345.62394 1033.32547,3345.93966 Z M1026.85811,3363.62286 C1024.28059,3363.62286 1022.18274,3361.50398 1022.18274,3358.89927 C1022.18274,3356.29456 1024.28059,3354.17567 1026.85811,3354.17567 C1029.43562,3354.17567 1031.53347,3356.29456 1031.53347,3358.89927 C1031.53347,3361.50398 1029.43562,3363.62286 1026.85811,3363.62286 Z M1026.69777,3361.43866 C1027.79239,3361.43866 1028.67975,3360.5424 1028.67975,3359.43681 C1028.67975,3358.33122 1027.79239,3357.43497 1026.69777,3357.43497 C1025.60315,3357.43497 1024.71579,3358.33122 1024.71579,3359.43681 C1024.71579,3360.5424 1025.60315,3361.43866 1026.69777,3361.43866 Z M1071.75107,3370.98383 L1065.39688,3371.13625 C1064.66526,3371.1553 1064.08051,3371.75817 1064.08051,3372.49712 L1064.08051,3377.24657 L1043.34451,3377.24657 C1034.16893,3377.24657 1031.5456,3370.89674 1031.44185,3370.63409 C1031.24109,3370.11015 1030.74122,3369.76449 1030.18476,3369.76449 L1023.53011,3369.76449 C1022.78501,3369.76449 1022.18274,3370.3728 1022.18274,3371.12536 C1022.18274,3381.94023 1033.06543,3385.77789 1042.38383,3385.77789 L1063.92825,3385.74251 L1063.89322,3388.98275 C1063.88918,3389.34611 1064.03065,3389.69585 1064.28261,3389.95442 C1064.53592,3390.21298 1064.87949,3390.3586 1065.24059,3390.3586 L1071.78206,3390.3586 C1072.52716,3390.3586 1073.12943,3389.75029 1073.12943,3388.99772 L1073.12943,3372.34471 C1073.12943,3371.97727 1072.98392,3371.62753 1072.72253,3371.37032 C1072.46383,3371.11448 1072.07983,3370.98111 1071.75107,3370.98383 L1071.75107,3370.98383 Z M1082.59739,3366.7243 L1075.11006,3366.7243 C1074.36497,3366.7243 1073.76269,3367.33261 1073.76269,3368.08517 L1073.76269,3393.31169 C1073.76269,3394.06426 1074.36497,3394.67257 1075.11006,3394.67257 L1082.59739,3394.67257 C1083.34248,3394.67257 1083.94476,3394.06426 1083.94476,3393.31169 L1083.94476,3368.08517 C1083.94476,3367.33261 1083.34248,3366.7243 1082.59739,3366.7243 L1082.59739,3366.7243 Z" id="cctv" sketch:type="MSShapeGroup"></path>
        </g>
    </g>
</svg>