<?xml version="1.0" encoding="utf-8"?>
<!-- Generator: Adobe Illustrator 17.1.0, SVG Export Plug-In . SVG Version: 6.00 Build 0)  -->
<!DOCTYPE svg PUBLIC "-//W3C//DTD SVG 1.1//EN" "http://www.w3.org/Graphics/SVG/1.1/DTD/svg11.dtd">
<svg version="1.1" xmlns="http://www.w3.org/2000/svg" xmlns:xlink="http://www.w3.org/1999/xlink" x="0px" y="0px"
	 viewBox="0 0 144 144" enable-background="new 0 0 144 144" xml:space="preserve">
<g id="back">
</g>
<g id="illustration">
	<circle fill="#82C250" cx="72" cy="72" r="72"/>
	<g>
		<path fill="#FFFFFF" d="M110.957,51.5c0-5.247-4.253-9.5-9.5-9.5h-58c-5.247,0-9.5,4.253-9.5,9.5v32c0,5.247,4.253,9.5,9.5,9.5h58
			c5.247,0,9.5-4.253,9.5-9.5V51.5z M105.957,83.5c0,2.485-2.015,4.5-4.5,4.5h-58c-2.485,0-4.5-2.015-4.5-4.5v-32
			c0-2.485,2.015-4.5,4.5-4.5h58c2.485,0,4.5,2.015,4.5,4.5V83.5z"/>
		<path fill="#FFFFFF" d="M87.957,103h-31c-1.381,0-2.5,1.119-2.5,2.5c0,1.381,1.119,2.5,2.5,2.5h31c1.381,0,2.5-1.119,2.5-2.5
			C90.457,104.119,89.338,103,87.957,103z"/>
	</g>
</g>
</svg>
