<?xml version="1.0" encoding="UTF-8" standalone="no"?>
<svg width="64px" height="64px" viewBox="0 0 64 64" version="1.1" xmlns="http://www.w3.org/2000/svg" xmlns:xlink="http://www.w3.org/1999/xlink" xmlns:sketch="http://www.bohemiancoding.com/sketch/ns">
    <!-- Generator: Sketch Beta 3.2 (9790) - http://www.bohemiancoding.com/sketch -->
    <title>controls</title>
    <desc>Created with Sketch Beta.</desc>
    <defs>
        <filter x="-50%" y="-50%" width="200%" height="200%" filterUnits="objectBoundingBox" id="filter-1">
            <feMorphology radius="1" in="SourceAlpha" operator="dilate" result="shadowSpreadOuter1"></feMorphology>
            <feOffset dx="0" dy="0" in="shadowSpreadOuter1" result="shadowOffsetOuter1"></feOffset>
            <feGaussianBlur stdDeviation="1" in="shadowOffsetOuter1" result="shadowBlurOuter1"></feGaussianBlur>
            <feColorMatrix values="0 0 0 0 1   0 0 0 0 1   0 0 0 0 1  0 0 0 0.35 0" in="shadowBlurOuter1" type="matrix" result="shadowMatrixOuter1"></feColorMatrix>
            <feMerge>
                <feMergeNode in="shadowMatrixOuter1"></feMergeNode>
                <feMergeNode in="SourceGraphic"></feMergeNode>
            </feMerge>
        </filter>
        <filter x="-50%" y="-50%" width="200%" height="200%" filterUnits="objectBoundingBox" id="filter-2">
            <feMorphology radius="1" in="SourceAlpha" operator="dilate" result="shadowSpreadOuter1"></feMorphology>
            <feOffset dx="0" dy="0" in="shadowSpreadOuter1" result="shadowOffsetOuter1"></feOffset>
            <feGaussianBlur stdDeviation="1" in="shadowOffsetOuter1" result="shadowBlurOuter1"></feGaussianBlur>
            <feColorMatrix values="0 0 0 0 1   0 0 0 0 1   0 0 0 0 1  0 0 0 0.35 0" in="shadowBlurOuter1" type="matrix" result="shadowMatrixOuter1"></feColorMatrix>
            <feMerge>
                <feMergeNode in="shadowMatrixOuter1"></feMergeNode>
                <feMergeNode in="SourceGraphic"></feMergeNode>
            </feMerge>
        </filter>
    </defs>
    <g id="slice" stroke="none" stroke-width="1" fill="none" fill-rule="evenodd" sketch:type="MSPage">
        <g id="controls" sketch:type="MSArtboardGroup">
            <ellipse id="Oval-78" stroke="#D8D8D8" sketch:type="MSShapeGroup" cx="16.0193005" cy="16.0193005" rx="16.0193005" ry="16.0193005"></ellipse>
            <ellipse id="Oval-78" fill="#66CDCF" sketch:type="MSShapeGroup" cx="16.0193005" cy="48.0579014" rx="16.0193005" ry="16.0193005"></ellipse>
            <path d="M9,16.6528999 L9,14.9686894 L21.0020658,14.9686894 L16.2242931,10.1909167 L17.4152097,9 L23.0350877,14.619878 L24.2318473,15.8049518 L23.0409306,17.0075542 L17.4152097,22.6215893 L16.2242931,21.4306726 L21.0020658,16.6528999 L9,16.6528999 Z" id="Arrow-Back-3" fill="#D8D8D8" sketch:type="MSShapeGroup" transform="translate(16.578947, 15.736842) scale(-1, 1) translate(-16.578947, -15.736842) "></path>
            <path d="M9,48.6915008 L9,47.0072903 L21.0020658,47.0072903 L16.2242931,42.2295176 L17.4152097,41.0386009 L23.0350877,46.6584789 L24.2318473,47.8435527 L23.0409306,49.0461551 L17.4152097,54.6601902 L16.2242931,53.4692736 L21.0020658,48.6915008 L9,48.6915008 Z" id="Arrow-Back-3" fill="#FFFFFF" filter="url(#filter-1)" sketch:type="MSShapeGroup" transform="translate(16.578947, 47.775443) scale(-1, 1) translate(-16.578947, -47.775443) "></path>
            <ellipse id="Oval-78" stroke="#D8D8D8" sketch:type="MSShapeGroup" transform="translate(48.019300, 16.019300) scale(-1, 1) translate(-48.019300, -16.019300) " cx="48.0193005" cy="16.0193005" rx="16.0193005" ry="16.0193005"></ellipse>
            <ellipse id="Oval-78" fill="#66CDCF" sketch:type="MSShapeGroup" transform="translate(48.019300, 48.057901) scale(-1, 1) translate(-48.019300, -48.057901) " cx="48.0193005" cy="48.0579014" rx="16.0193005" ry="16.0193005"></ellipse>
            <path d="M40,16.6528999 L40,14.9686894 L52.0020658,14.9686894 L47.2242931,10.1909167 L48.4152097,9 L54.0350877,14.619878 L55.2318473,15.8049518 L54.0409306,17.0075542 L48.4152097,22.6215893 L47.2242931,21.4306726 L52.0020658,16.6528999 L40,16.6528999 Z" id="Arrow-Back-3" fill="#D8D8D8" sketch:type="MSShapeGroup"></path>
            <path d="M40,48.6915008 L40,47.0072903 L52.0020658,47.0072903 L47.2242931,42.2295176 L48.4152097,41.0386009 L54.0350877,46.6584789 L55.2318473,47.8435527 L54.0409306,49.0461551 L48.4152097,54.6601902 L47.2242931,53.4692736 L52.0020658,48.6915008 L40,48.6915008 Z" id="Arrow-Back-3" fill="#FFFFFF" filter="url(#filter-2)" sketch:type="MSShapeGroup"></path>
        </g>
    </g>
</svg>