<?xml version="1.0" encoding="UTF-8" standalone="no"?>
<svg width="99px" height="128px" viewBox="0 0 99 128" version="1.1" xmlns="http://www.w3.org/2000/svg" xmlns:xlink="http://www.w3.org/1999/xlink" xmlns:sketch="http://www.bohemiancoding.com/sketch/ns">
    <!-- Generator: Sketch 3.1.1 (8761) - http://www.bohemiancoding.com/sketch -->
    <title>cooler</title>
    <desc>Created with Sketch.</desc>
    <defs></defs>
    <g id="Page" stroke="none" stroke-width="1" fill="none" fill-rule="evenodd" sketch:type="MSPage">
        <g id="Desktop-HD-2" sketch:type="MSArtboardGroup" transform="translate(-386.000000, -3449.000000)" fill="#00ADEE">
            <path d="M444.721667,3547.47773 C467.621833,3543.13317 484.945,3522.93285 484.945,3498.67148 C484.945,3471.24558 462.78,3449 435.465167,3449 C408.150333,3449 386,3471.24558 386,3498.67148 C386,3523.33969 403.4625,3543.81247 426.940167,3547.68391 C429.439,3548.09627 431.035833,3550.27591 431.035833,3552.82005 L431.035833,3564.09932 C431.035833,3566.29736 429.261167,3568.07937 427.072167,3568.07937 L422.472333,3568.07937 C420.254,3568.07937 418.4555,3569.8853 418.4555,3572.1128 L418.4555,3572.56199 C418.4555,3574.78949 420.254,3576.59542 422.472333,3576.59542 L448.472667,3576.59542 C450.691,3576.59542 452.4895,3574.78949 452.4895,3572.56199 L452.4895,3572.1128 C452.4895,3569.8853 450.691,3568.07937 448.472667,3568.07937 L444.166167,3568.07937 C441.977167,3568.07937 440.2025,3566.29736 440.2025,3564.09932 L440.2025,3552.72064 C440.2025,3550.18202 442.233833,3547.949 444.721667,3547.47773 L444.721667,3547.47773 Z M395.318833,3498.67332 C395.318833,3476.40933 413.302,3458.36104 435.465167,3458.36104 C457.639333,3458.36104 475.609667,3476.41301 475.609667,3498.67332 C475.6115,3520.93362 457.6375,3538.98744 435.465167,3538.98744 C413.298333,3538.98928 395.318833,3520.93362 395.318833,3498.67332 Z M471.119833,3488.16724 C470.272833,3485.77221 468.512833,3482.05173 467.1305,3479.92179 C457.628333,3465.29943 446.4725,3464.40107 437.921833,3484.16509 C437.712833,3484.64741 437.5075,3485.1058 437.3095,3485.53841 C436.763167,3485.4703 436.2095,3485.42244 435.646667,3485.42244 C431.9745,3485.42244 428.650667,3486.90805 426.2325,3489.31044 C425.823667,3489.18342 425.4295,3489.02142 425.079333,3488.77105 C415.901667,3482.19716 423.0095,3455.82978 408.102667,3473.29267 C406.4545,3475.2201 404.1225,3478.61474 402.976667,3480.88091 C394.990667,3496.69434 400.070833,3506.91692 422.246833,3504.02853 C422.584167,3503.98435 422.917833,3503.95489 423.249667,3503.93648 C424.811667,3507.78399 428.098833,3510.72945 432.145,3511.83031 C433.017667,3523.82937 403.964833,3531.1875 427.294,3535.57991 C429.776333,3536.04751 433.875667,3536.38071 436.403833,3536.2408 C454.275167,3535.26512 460.462667,3525.48251 446.157167,3507.17649 C447.953833,3504.88824 449.0355,3502.00537 449.0355,3498.86293 C449.0355,3497.76023 448.888833,3496.69434 448.6395,3495.66895 C458.988667,3489.32885 479.0215,3510.51774 471.119833,3488.16724 Z" id="cooler" sketch:type="MSShapeGroup"></path>
        </g>
    </g>
</svg>