<?xml version="1.0" encoding="utf-8"?>
<!-- Generator: Adobe Illustrator 17.1.0, SVG Export Plug-In . SVG Version: 6.00 Build 0)  -->
<!DOCTYPE svg PUBLIC "-//W3C//DTD SVG 1.1//EN" "http://www.w3.org/Graphics/SVG/1.1/DTD/svg11.dtd">
<svg version="1.1" xmlns="http://www.w3.org/2000/svg" xmlns:xlink="http://www.w3.org/1999/xlink" x="0px" y="0px"
	 viewBox="0 0 976 517" enable-background="new 0 0 976 517" xml:space="preserve">
<g id="back">
</g>
<g id="illustration">
	<g>
		<rect x="16" y="183" fill="#E3ECF0" width="944" height="17"/>
		<polygon fill="#B7BFC7" points="959.702,183 16.298,183 166.574,0 809.426,0 		"/>
		<polygon fill="#989FA6" points="692.543,183 283.456,183 483.826,16 492.174,16 		"/>
		<polygon fill="#DCE4E8" points="684.195,183 291.806,183 483.996,23 492.004,23 		"/>
		<rect x="41" y="200" fill="#8DA9BA" width="894" height="284"/>
		<rect x="41" y="200" fill="#7595A8" width="894" height="7"/>
		<g>
			<rect x="551" y="241" fill="#708FA1" width="142" height="142"/>
			<rect x="568" y="258" fill="#F5D18E" width="50" height="51"/>
			<rect x="568" y="316" fill="#F5D18E" width="50" height="51"/>
			<rect x="625" y="258" fill="#F5D18E" width="51" height="51"/>
			<rect x="625" y="316" fill="#F5D18E" width="51" height="51"/>
		</g>
		<g>
			<rect x="743" y="241" fill="#708FA1" width="141" height="142"/>
			<rect x="759" y="258" fill="#F5D18E" width="50" height="51"/>
			<rect x="759" y="316" fill="#F5D18E" width="50" height="51"/>
			<rect x="818" y="258" fill="#F5D18E" width="50" height="51"/>
			<rect x="818" y="316" fill="#F5D18E" width="50" height="51"/>
		</g>
		<g>
			<rect x="92" y="241" fill="#708FA1" width="217" height="142"/>
			<rect x="108" y="258" fill="#F5D18E" width="42" height="109"/>
			<rect x="158" y="258" fill="#F5D18E" width="84" height="109"/>
			<rect x="250" y="258" fill="#F5D18E" width="42" height="109"/>
		</g>
		<rect x="16" y="484" fill="#B7BFC7" width="944" height="16"/>
		<rect x="0" y="500" fill="#989FA6" width="976" height="17"/>
		<rect x="325" y="467" fill="#A3AEB8" width="209" height="25"/>
		<rect x="310" y="492" fill="#8C949C" width="240" height="25"/>
		<rect x="341" y="442" fill="#BCC6CF" width="177" height="25"/>
		<rect x="367" y="217" fill="#708FA1" width="125" height="225"/>
		<rect x="384" y="233" fill="#3F6477" width="92" height="93"/>
		<rect x="384" y="334" fill="#3F6477" width="92" height="91"/>
		<g>
			<defs>
				<polygon id="SVGID_3_" points="684.195,183 291.806,183 483.996,23 492.004,23 				"/>
			</defs>
			<clipPath id="SVGID_2_">
				<use xlink:href="#SVGID_3_"  overflow="visible"/>
			</clipPath>
			<g clip-path="url(#SVGID_2_)">
				<g>
					<rect x="289" y="181" fill="#C2CBD4" width="396" height="2"/>
				</g>
				<g>
					<rect x="314" y="161" fill="#C2CBD4" width="349" height="2"/>
				</g>
				<g>
					<rect x="338" y="141" fill="#C2CBD4" width="301" height="2"/>
				</g>
				<g>
					<rect x="362" y="121" fill="#C2CBD4" width="253" height="2"/>
				</g>
				<g>
					<rect x="385" y="101" fill="#C2CBD4" width="206" height="2"/>
				</g>
				<g>
					<rect x="409" y="81" fill="#C2CBD4" width="158" height="2"/>
				</g>
				<g>
					<rect x="433" y="61" fill="#C2CBD4" width="109" height="2"/>
				</g>
				<g>
					<rect x="457" y="41" fill="#C2CBD4" width="63" height="2"/>
				</g>
			</g>
		</g>
		<g>
			<rect x="474" y="43" fill="#C2CBD4" width="28" height="38"/>
			<rect x="477" y="45" fill="#989FA6" width="22" height="33"/>
		</g>
	</g>
</g>
</svg>
