<?xml version="1.0" encoding="UTF-8" standalone="no"?>
<svg width="48px" height="48px" viewBox="0 0 48 48" version="1.1" xmlns="http://www.w3.org/2000/svg" xmlns:xlink="http://www.w3.org/1999/xlink" xmlns:sketch="http://www.bohemiancoding.com/sketch/ns">
    <!-- Generator: Sketch 3.1.1 (8761) - http://www.bohemiancoding.com/sketch -->
    <title>icon-me</title>
    <desc>Created with Sketch.</desc>
    <defs></defs>
    <g id="Page" stroke="none" stroke-width="1" fill="none" fill-rule="evenodd" sketch:type="MSPage">
        <g id="Desktop-HD-2" sketch:type="MSArtboardGroup" transform="translate(-664.000000, -5101.000000)" fill="#FFFFFF">
            <path d="M695.139314,5123.8984 L695.139314,5115.62931 C695.139314,5111.86281 691.899314,5108.8 688.0216,5108.8 C686.145486,5108.8 684.250857,5109.50976 682.925029,5110.8007 C681.597143,5112.08961 680.739314,5113.8058 680.739314,5115.62931 L680.739314,5123.8984 C678.682171,5125.78064 677.568229,5128.38681 677.568229,5131.19751 C677.568229,5136.7126 682.223543,5141.2 687.893029,5141.2 C693.568686,5141.2 698.2888,5136.7126 698.2888,5131.19751 C698.289829,5128.3858 697.196457,5125.78064 695.139314,5123.8984 L695.139314,5123.8984 Z M688,5149 C701.254834,5149 712,5138.25483 712,5125 C712,5111.74517 701.254834,5101 688,5101 C674.745166,5101 664,5111.74517 664,5125 C664,5138.25483 674.745166,5149 688,5149 Z M687.936229,5136.91308 C684.698286,5136.91308 682.063086,5134.34943 682.063086,5131.19751 C682.063086,5129.37602 682.692571,5127.70641 684.1984,5126.62 C684.756914,5126.21601 684.8536,5125.57712 684.8536,5124.90078 L684.8536,5115.63134 C684.8536,5114.95195 685.358629,5114.31205 685.853371,5113.83415 C686.347086,5113.35321 687.353029,5113.08996 688.054514,5113.08996 C689.500686,5113.08996 691.027086,5114.23004 691.027086,5115.63235 L691.027086,5124.90179 C691.027086,5125.57915 691.123771,5126.21702 691.683314,5126.62101 C693.189143,5127.70844 693.933829,5129.37805 693.933829,5131.19852 C693.9328,5134.34841 691.178286,5136.91308 687.936229,5136.91308 Z M690.802857,5131.075 L685.079886,5131.075 C684.215886,5131.075 683.486629,5131.53974 683.783886,5132.32949 C684.409257,5133.97581 686.0344,5135.02881 687.941371,5135.02881 C689.848343,5135.02881 691.473486,5134.03555 692.097829,5132.38922 C692.396114,5131.59947 691.666857,5131.075 690.802857,5131.075 Z" id="icon-me" sketch:type="MSShapeGroup"></path>
        </g>
    </g>
</svg>