<?xml version="1.0" encoding="UTF-8" standalone="no"?>
<svg width="48px" height="48px" viewBox="0 0 48 48" version="1.1" xmlns="http://www.w3.org/2000/svg" xmlns:xlink="http://www.w3.org/1999/xlink" xmlns:sketch="http://www.bohemiancoding.com/sketch/ns">
<title>icon-health</title>
<defs></defs>
<g id="icon-health" transform="translate(159.000000, 12.000000)" sketch:type="MSShapeGroup">
<path d="M35.0765661,16.3333333 L29.424594,16.3333333 L29.424594,12 C29.424594,11.4666667 28.9698376,11 28.450116,11 L18.8352668,11 C18.3155452,11 17.8607889,11.4666667 17.8607889,12 L17.8607889,16.3333333 L12.9234339,16.3333333 C11.2993039,16.3333333 10,17.6666667 10,19.3333333 L10,34 C10,35.6666667 11.2993039,37 12.9234339,37 L35.0765661,37 C36.7006961,37 38,35.6666667 38,34 L38,19.3333333 C38,17.6666667 36.7006961,16.3333333 35.0765661,16.3333333 L35.0765661,16.3333333 Z M19.7447796,13.8 C19.7447796,13.4 20.0046404,13.0666667 20.3944316,13.0666667 L26.9559165,13.0666667 C27.2807425,13.0666667 27.6055684,13.4 27.6055684,13.8 L27.6055684,16.3333333 L19.7447796,16.3333333 L19.7447796,13.8 L19.7447796,13.8 Z M30.2691415,28.3333333 L25.5916473,28.3333333 L25.5916473,33 L22.3433875,33 L22.3433875,28.3333333 L17.6658933,28.3333333 L17.6658933,25 L22.3433875,25 L22.3433875,20.2666667 L25.5916473,20.2666667 L25.5916473,25 L30.2691415,25 L30.2691415,28.3333333 L30.2691415,28.3333333 Z" id="Shape-2"></path>
</g>
</svg>