<?xml version="1.0" encoding="UTF-8" standalone="no"?>
<svg width="17px" height="12px" viewBox="0 0 17 12" version="1.1" xmlns="http://www.w3.org/2000/svg" xmlns:xlink="http://www.w3.org/1999/xlink" xmlns:sketch="http://www.bohemiancoding.com/sketch/ns">
    <!-- Generator: Sketch 3.1.1 (8761) - http://www.bohemiancoding.com/sketch -->
    <title>icon-mail</title>
    <desc>Created with Sketch.</desc>
    <defs></defs>
    <g id="Page" stroke="none" stroke-width="1" fill="none" fill-rule="evenodd" sketch:type="MSPage">
        <g id="Desktop-HD-2" sketch:type="MSArtboardGroup" transform="translate(-617.000000, -6602.000000)" fill="#FFFFFF">
            <g id="footer" sketch:type="MSLayerGroup" transform="translate(548.000000, 6406.000000)">
                <g id="Group" transform="translate(46.000000, 121.000000)" sketch:type="MSShapeGroup">
                    <path d="M37.5505007,75 L25.5505007,75 C24.4460007,75 23.5505007,75.8955 23.5505007,77 L23.5505007,85 C23.5505007,86.105 24.4460007,87 25.5505007,87 L37.5505007,87 C38.6550007,87 39.5505007,86.105 39.5505007,85 L39.5505007,77 C39.5505007,75.8955 38.6550007,75 37.5505007,75 L37.5505007,75 Z M35.1110007,81.552 L36.7400007,83.608 C36.9115007,83.8245 36.8565007,83.8885 36.6165007,83.752 L33.9845007,82.2475 C33.7450007,82.111 33.3905007,82.155 33.1945007,82.3505 C32.8285007,82.7155 32.2660007,83.28 31.9030007,83.645 C31.7080007,83.8415 31.3925007,83.841 31.1990007,83.644 C30.8380007,83.2795 30.2780007,82.7145 29.9090007,82.348 C29.7130007,82.1535 29.3565007,82.111 29.1160007,82.248 L26.4840007,83.7525 C26.2440007,83.889 26.1810007,83.819 26.3425007,83.5955 L27.9395007,81.3675 C28.1005007,81.1435 28.0810007,80.7965 27.9050007,80.584 C27.2800007,79.8275 25.9635007,78.1555 25.3600007,77.393 C25.1885007,77.1765 25.2275007,77.137 25.4465007,77.305 C26.6020007,78.191 29.9570007,80.7645 31.1555007,81.693 C31.3745007,81.862 31.7240007,81.86 31.9415007,81.6905 C33.1355007,80.7595 36.4950007,78.1885 37.6520007,77.304 C37.8710007,77.1365 37.9135007,77.179 37.7460007,77.3985 C37.1370007,78.197 35.7670007,79.9865 35.1245007,80.781 C34.9515007,80.9945 34.9395007,81.336 35.1110007,81.552 L35.1110007,81.552 Z" id="icon-mail"></path>
                </g>
            </g>
        </g>
    </g>
</svg>