<?xml version="1.0" encoding="UTF-8" standalone="no"?>
<svg width="48px" height="48px" viewBox="0 0 48 48" version="1.1" xmlns="http://www.w3.org/2000/svg" xmlns:xlink="http://www.w3.org/1999/xlink" xmlns:sketch="http://www.bohemiancoding.com/sketch/ns">
    <!-- Generator: Sketch 3.1.1 (8761) - http://www.bohemiancoding.com/sketch -->
    <title>icon-el</title>
    <desc>Created with Sketch.</desc>
    <defs></defs>
    <g id="Page" stroke="none" stroke-width="1" fill="none" fill-rule="evenodd" sketch:type="MSPage">
        <g id="Desktop-HD-2" sketch:type="MSArtboardGroup" transform="translate(-1002.000000, -5048.000000)" fill="#FFFFFF">
            <path d="M1026,5096 C1039.25483,5096 1050,5085.25483 1050,5072 C1050,5058.74517 1039.25483,5048 1026,5048 C1012.74517,5048 1002,5058.74517 1002,5072 C1002,5085.25483 1012.74517,5096 1026,5096 Z M1026.00051,5079.58974 C1026.00051,5078.99122 1025.50844,5078.50546 1024.89969,5078.50546 L1011.6898,5078.50546 C1010.47449,5078.50546 1010.04076,5077.70201 1010.72327,5076.71098 L1024.66081,5056.44694 C1025.34222,5055.45483 1025.89593,5055.62289 1025.89593,5056.81993 L1025.89593,5064.40987 C1025.89593,5065.00947 1026.388,5065.49414 1026.99565,5065.49414 L1040.31232,5065.49414 C1041.52873,5065.49414 1041.95916,5066.29651 1041.27444,5067.28537 L1027.24224,5087.55592 C1026.55753,5088.54478 1026.00271,5088.37671 1026.00271,5087.1775 L1026.00271,5079.58974 L1026.00051,5079.58974 Z" id="icon-el" sketch:type="MSShapeGroup"></path>
        </g>
    </g>
</svg>