<?xml version="1.0" encoding="UTF-8" standalone="no"?>
<svg width="48px" height="48px" viewBox="0 0 48 48" version="1.1" xmlns="http://www.w3.org/2000/svg" xmlns:xlink="http://www.w3.org/1999/xlink" xmlns:sketch="http://www.bohemiancoding.com/sketch/ns">
    <!-- Generator: Sketch 3.1.1 (8761) - http://www.bohemiancoding.com/sketch -->
    <title>icon-ip</title>
    <desc>Created with Sketch.</desc>
    <defs></defs>
    <g id="Page" stroke="none" stroke-width="1" fill="none" fill-rule="evenodd" sketch:type="MSPage">
        <g id="Desktop-HD-2" sketch:type="MSArtboardGroup" transform="translate(-817.000000, -4992.000000)" fill="#FFFFFF">
            <path d="M841,5040 C854.254834,5040 865,5029.25483 865,5016 C865,5002.74517 854.254834,4992 841,4992 C827.745166,4992 817,5002.74517 817,5016 C817,5029.25483 827.745166,5040 841,5040 Z M856.524705,5007.96384 C856.378914,5007.90439 856.243247,5007.88184 856.098469,5007.88184 C855.819036,5007.88184 855.532517,5007.99562 855.322942,5008.20883 L850.891507,5012.60523 C850.455147,5012.98757 850.110918,5012.82972 850.110918,5012.24339 L850.110918,5009.87657 C850.110918,5006.97467 847.721567,5004 844.821949,5004 L830.153765,5004 C827.256171,5004 824.8,5006.97467 824.8,5009.87657 L824.8,5023.32103 C824.8,5026.22293 827.256171,5028.6 830.153765,5028.6 L844.821949,5028.6 C847.719543,5028.6 850.110918,5026.22293 850.110918,5023.32103 L850.110918,5020.98701 C850.110918,5020.40376 850.457171,5020.25 850.889482,5020.63747 L855.329017,5025.12203 C855.538591,5025.33421 855.822074,5025.44184 856.102519,5025.44184 C856.248309,5025.44184 856.381951,5025.42032 856.527742,5025.35984 C856.930692,5025.19071 857.2,5024.79197 857.2,5024.34505 L857.2,5008.98376 C857.197975,5008.54196 856.928667,5008.13297 856.524705,5007.96384 Z" id="icon-ip" sketch:type="MSShapeGroup"></path>
        </g>
    </g>
</svg>