<?xml version="1.0" encoding="UTF-8" standalone="no"?>
<svg width="17px" height="16px" viewBox="0 0 17 16" version="1.1" xmlns="http://www.w3.org/2000/svg" xmlns:xlink="http://www.w3.org/1999/xlink" xmlns:sketch="http://www.bohemiancoding.com/sketch/ns">
    <!-- Generator: Sketch 3.1.1 (8761) - http://www.bohemiancoding.com/sketch -->
    <title>icon-phone</title>
    <desc>Created with Sketch.</desc>
    <defs></defs>
    <g id="Page" stroke="none" stroke-width="1" fill="none" fill-rule="evenodd" sketch:type="MSPage">
        <g id="Desktop-HD-2" sketch:type="MSArtboardGroup" transform="translate(-648.000000, -6577.000000)" fill="#FFFFFF">
            <g id="footer" sketch:type="MSLayerGroup" transform="translate(548.000000, 6406.000000)">
                <g id="Group" transform="translate(46.000000, 121.000000)" sketch:type="MSShapeGroup">
                    <path d="M70.5105094,63.4085 C70.3685111,64.058 69.6310199,65.631 68.9285283,65.7935 C68.3340354,65.931 67.7150429,66 67.0865504,66 C63.6475915,65.995 59.8991363,63.945 57.2956674,60.64 C55.0111947,57.734 54.0877058,54.445 54.7706976,51.6175 C54.9471955,50.885 56.7356741,50 57.5171648,50 C57.8806604,50 58.0771581,50.1575 58.1801568,50.29 C58.2881556,50.4325 60.1846329,53.324 60.2926316,53.5105 C60.7056267,54.2235 59.9926352,54.7 59.5606403,54.99 C58.8141493,55.487 58.1116577,55.9585 58.7596499,57.3255 C58.7701498,57.3455 59.4776413,58.855 60.6221277,59.937 C61.7226145,61.1025 63.2210966,61.8015 63.2360964,61.81 C63.5850922,61.9725 63.8845886,62.056 64.1405856,62.056 C64.7145787,62.056 65.0150751,61.6525 65.4125704,61.0335 C65.7020669,60.581 66.0020633,60.119 66.5420569,60.119 C66.7240547,60.119 66.9010526,60.1725 67.0725505,60.286 C67.1025502,60.306 70.1190141,62.2725 70.2605124,62.3805 C70.5255092,62.583 70.6090083,62.927 70.5105094,63.4085 L70.5105094,63.4085 Z" id="icon-phone"></path>
                </g>
            </g>
        </g>
    </g>
</svg>