<?xml version="1.0" encoding="UTF-8" standalone="no"?>
<svg width="48px" height="48px" viewBox="0 0 48 48" version="1.1" xmlns="http://www.w3.org/2000/svg" xmlns:xlink="http://www.w3.org/1999/xlink" xmlns:sketch="http://www.bohemiancoding.com/sketch/ns">
    <!-- Generator: Sketch 3.1.1 (8761) - http://www.bohemiancoding.com/sketch -->
    <title>icon-co</title>
    <desc>Created with Sketch.</desc>
    <defs></defs>
    <g id="Page" stroke="none" stroke-width="1" fill="none" fill-rule="evenodd" sketch:type="MSPage">
        <g id="Desktop-HD-2" sketch:type="MSArtboardGroup" transform="translate(-1114.000000, -5139.000000)" fill="#FFFFFF">
            <path d="M1138,5187 C1151.25483,5187 1162,5176.25483 1162,5163 C1162,5149.74517 1151.25483,5139 1138,5139 C1124.74517,5139 1114,5149.74517 1114,5163 C1114,5176.25483 1124.74517,5187 1138,5187 Z M1135.74822,5166.18522 C1135.74822,5166.68391 1135.6255,5167.22355 1135.38004,5167.80416 C1135.13458,5168.38477 1134.74862,5168.95468 1134.22213,5169.51392 C1133.69565,5170.07316 1133.02332,5170.52731 1132.20514,5170.87639 C1131.38695,5171.22546 1130.4336,5171.4 1129.34506,5171.4 C1128.51976,5171.4 1127.76917,5171.32164 1127.09328,5171.16491 C1126.41739,5171.00818 1125.80376,5170.76418 1125.25237,5170.43292 C1124.70099,5170.10165 1124.19407,5169.66531 1123.73162,5169.12388 C1123.31897,5168.63232 1122.9668,5168.082 1122.6751,5167.47289 C1122.3834,5166.86378 1122.16463,5166.21372 1122.01877,5165.52269 C1121.87292,5164.83166 1121.8,5164.09789 1121.8,5163.32137 C1121.8,5162.06042 1121.9832,5160.93127 1122.3496,5159.93391 C1122.71601,5158.93654 1123.24071,5158.08345 1123.92372,5157.3746 C1124.60672,5156.66576 1125.40711,5156.12612 1126.3249,5155.75567 C1127.24269,5155.38522 1128.22094,5155.2 1129.25968,5155.2 C1130.52609,5155.2 1131.65375,5155.4529 1132.64269,5155.95871 C1133.63163,5156.46451 1134.38933,5157.08964 1134.91581,5157.8341 C1135.4423,5158.57857 1135.70553,5159.28205 1135.70553,5159.94459 C1135.70553,5160.30792 1135.57747,5160.62849 1135.32134,5160.90633 C1135.06522,5161.18417 1134.75573,5161.32309 1134.39289,5161.32309 C1133.98735,5161.32309 1133.6832,5161.22691 1133.48043,5161.03456 C1133.27767,5160.84222 1133.05178,5160.51095 1132.80277,5160.04077 C1132.39012,5159.26424 1131.90455,5158.68364 1131.34605,5158.29894 C1130.78755,5157.91425 1130.09921,5157.7219 1129.28103,5157.7219 C1127.97904,5157.7219 1126.9421,5158.21701 1126.17016,5159.20726 C1125.39822,5160.1975 1125.01225,5161.60448 1125.01225,5163.42823 C1125.01225,5164.64644 1125.183,5165.65982 1125.52451,5166.4684 C1125.86601,5167.27698 1126.3498,5167.88074 1126.97589,5168.27968 C1127.60198,5168.67863 1128.33478,5168.8781 1129.17431,5168.8781 C1130.08498,5168.8781 1130.85514,5168.65192 1131.48478,5168.19954 C1132.11443,5167.74716 1132.58933,5167.08285 1132.90949,5166.2066 C1133.04466,5165.7934 1133.21186,5165.4568 1133.41107,5165.19677 C1133.61028,5164.93674 1133.93043,5164.80673 1134.37154,5164.80673 C1134.74862,5164.80673 1135.07233,5164.93852 1135.34269,5165.20211 C1135.61304,5165.4657 1135.74822,5165.7934 1135.74822,5166.18522 Z M1145.48103,5155.2 C1147.10317,5155.2 1148.49584,5155.52948 1149.65909,5156.18846 C1150.82234,5156.84743 1151.70276,5157.78423 1152.3004,5158.99888 C1152.89803,5160.21353 1153.19684,5161.6401 1153.19684,5163.27863 C1153.19684,5164.48972 1153.0332,5165.59036 1152.70593,5166.58061 C1152.37865,5167.57085 1151.88775,5168.42928 1151.2332,5169.15594 C1150.57865,5169.88259 1149.77471,5170.43826 1148.82134,5170.82296 C1147.86798,5171.20765 1146.7759,5171.4 1145.54506,5171.4 C1144.32134,5171.4 1143.2257,5171.20231 1142.2581,5170.80693 C1141.29051,5170.41154 1140.48301,5169.85409 1139.83557,5169.13456 C1139.18814,5168.41504 1138.69901,5167.54948 1138.36818,5166.53786 C1138.03735,5165.52625 1137.87194,5164.43272 1137.87194,5163.25726 C1137.87194,5162.05329 1138.04446,5160.94908 1138.38953,5159.94459 C1138.73459,5158.9401 1139.23438,5158.08523 1139.88893,5157.37995 C1140.54348,5156.67467 1141.34031,5156.13503 1142.27945,5155.76102 C1143.21858,5155.387 1144.28576,5155.2 1145.48103,5155.2 L1145.48103,5155.2 Z M1149.98458,5163.25726 C1149.98458,5162.11028 1149.79961,5161.11649 1149.42964,5160.27586 C1149.05968,5159.43522 1148.53143,5158.79941 1147.84486,5158.3684 C1147.1583,5157.9374 1146.37036,5157.7219 1145.48103,5157.7219 C1144.84782,5157.7219 1144.26265,5157.84123 1143.72549,5158.07988 C1143.18834,5158.31854 1142.72589,5158.66583 1142.33814,5159.12177 C1141.95039,5159.57771 1141.64447,5160.16009 1141.42036,5160.86893 C1141.19624,5161.57777 1141.08419,5162.37387 1141.08419,5163.25726 C1141.08419,5164.14776 1141.19624,5164.95277 1141.42036,5165.6723 C1141.64447,5166.39182 1141.96107,5166.98845 1142.37016,5167.4622 C1142.77925,5167.93595 1143.24881,5168.29037 1143.77885,5168.52546 C1144.3089,5168.76056 1144.89051,5168.8781 1145.52372,5168.8781 C1146.33479,5168.8781 1147.08004,5168.67507 1147.75949,5168.269 C1148.43894,5167.86293 1148.97964,5167.23602 1149.38162,5166.38826 C1149.7836,5165.5405 1149.98458,5164.49684 1149.98458,5163.25726 L1149.98458,5163.25726 Z" id="icon-co" sketch:type="MSShapeGroup"></path>
        </g>
    </g>
</svg>