<?xml version="1.0" encoding="UTF-8" standalone="no"?>
<svg width="48px" height="48px" viewBox="0 0 48 48" version="1.1" xmlns="http://www.w3.org/2000/svg" xmlns:xlink="http://www.w3.org/1999/xlink" xmlns:sketch="http://www.bohemiancoding.com/sketch/ns">
<title>icon-scene</title>
<defs></defs>
<g id="icon-scene" transform="translate(15.000000, 12.000000)" sketch:type="MSShapeGroup">
<path class="svg-icon" d="M32.722135,24.8107015 C34.0031397,24.738979 35.0580848,24.2369213 35.8869702,23.3045285 C36.0376766,23.1610835 36.0376766,23.0893609 35.8869702,22.9459159 C34.455259,20.7225176 33.1742543,18.4273968 32.1193093,15.9888309 C31.4411303,14.2674903 30.8383046,12.4744271 30.7629513,10.6096415 C30.7629513,10.5379189 30.6875981,10.4661964 30.6122449,10.3944739 C29.9340659,10.1075838 29.1805338,10.0358613 28.4270016,10.1075838 C27.522763,10.1793063 26.6185243,10.4661964 25.8649922,10.9682541 C24.5839874,10.1075838 23.3783359,9.96413874 22.0973312,10.8965316 C21.6452119,10.4661964 21.1177394,10.2510288 20.5149137,10.1075838 C19.610675,9.96413874 18.6310832,9.96413874 17.7268446,10.1075838 C17.2747253,10.1793063 17.2747253,10.1793063 17.3500785,10.6096415 L17.3500785,10.7530865 C17.0486656,12.6178722 16.5965463,14.4109353 15.9183673,16.2039985 C15.1648352,18.2122292 14.1852433,20.1487374 12.9042386,21.9418005 C12.6028257,22.3004132 12.3014129,22.7307483 12,23.0893609 C12.0753532,23.1610835 12.1507064,23.1610835 12.2260597,23.232806 C12.3014129,23.3045285 12.3014129,23.3045285 12.3767661,23.376251 C13.2810047,24.3803664 14.411303,24.8107015 15.7676609,24.8107015 C16.8979592,24.8107015 17.1240188,24.5238114 18.1789639,24.1651988 C18.3296703,24.0934763 18.4803768,24.0934763 18.6310832,24.2369213 C19.2339089,24.5238114 19.9120879,24.8824241 20.5902669,25.0975917 C21.2684458,25.3127592 22.9262166,25.3844818 23.6043956,25.5279268 L23.6043956,34.42152 C19.3092622,34.4932425 15.9183673,35.2104678 15.9183673,36.1428606 C15.9183673,37.0752534 19.4599686,37.7924787 23.9058085,37.8642012 C24.2072214,38.0793688 24.6593407,38.0076463 24.9607535,37.8642012 C29.255887,37.7924787 32.5714286,37.0752534 32.5714286,36.1428606 C32.5714286,35.2821903 29.4065934,34.564965 25.2621664,34.42152 L25.2621664,25.4562043 C26.5431711,25.3127592 28.577708,24.8824241 29.6326531,24.3086439 C29.7080063,24.2369213 29.9340659,24.2369213 30.0094192,24.3086439 C30.5368917,24.5238114 30.8383046,24.595534 31.1397174,24.738979 L31.1397174,28.3251053 C30.6122449,28.5402729 30.2354788,29.0423306 30.2354788,29.6161108 C30.2354788,30.4050586 30.8383046,30.9788388 31.5918367,30.9788388 C32.3453689,30.9788388 32.9481947,30.333336 32.9481947,29.6161108 C32.9481947,29.0423306 32.5714286,28.4685504 32.043956,28.3251053 L32.043956,24.8824241 C32.2700157,24.8107015 32.4960754,24.8107015 32.722135,24.8107015 L32.722135,24.8107015 Z"></path>

</g>
</svg>