<?xml version="1.0" encoding="UTF-8" standalone="no"?>
<svg width="48px" height="48px" viewBox="0 0 48 48" version="1.1" xmlns="http://www.w3.org/2000/svg" xmlns:xlink="http://www.w3.org/1999/xlink" xmlns:sketch="http://www.bohemiancoding.com/sketch/ns">
    <!-- Generator: Sketch 3.1.1 (8761) - http://www.bohemiancoding.com/sketch -->
    <title>icon-se</title>
    <desc>Created with Sketch.</desc>
    <defs></defs>
    <g id="Page" stroke="none" stroke-width="1" fill="none" fill-rule="evenodd" sketch:type="MSPage">
        <g id="Desktop-HD-2" sketch:type="MSArtboardGroup" transform="translate(-920.000000, -5169.000000)" fill="#FFFFFF">
            <path d="M944,5217 C957.254834,5217 968,5206.25483 968,5193 C968,5179.74517 957.254834,5169 944,5169 C930.745166,5169 920,5179.74517 920,5193 C920,5206.25483 930.745166,5217 944,5217 Z M954.116667,5181.24389 C950.95,5180.7591 947.116667,5178.65835 945.533333,5177.85037 L943.7,5176.8 L941.866667,5177.85037 C940.366667,5178.73915 936.533333,5180.7591 933.283333,5181.24389 L930.2,5181.72868 L930.2,5184.799 C930.2,5188.8389 930.783333,5192.47481 931.866667,5195.78753 C932.866667,5198.77706 934.366667,5201.44339 936.2,5203.62494 C938.45,5206.29127 940.866667,5207.74564 942.033333,5208.39202 L943.7,5209.2 L945.366667,5208.39202 C946.533333,5207.82643 948.95,5206.37207 951.2,5203.70574 C953.033333,5201.52419 954.533333,5198.85786 955.533333,5195.86833 C956.616667,5192.63641 957.2,5188.8389 957.2,5184.799 L957.2,5181.72868 L954.116667,5181.24389 Z M955.116667,5184.799 C955.116667,5188.67731 954.533333,5192.15162 953.533333,5195.30274 C952.616667,5198.04988 951.283333,5200.47382 949.533333,5202.49377 C947.533333,5204.91771 945.45,5206.12968 944.366667,5206.61446 L943.616667,5206.93766 L942.866667,5206.53367 C941.783333,5205.96808 939.7,5204.67531 937.616667,5202.25137 C935.95,5200.23142 934.616667,5197.80748 933.616667,5195.06035 C932.616667,5191.99002 932.033333,5188.51571 932.033333,5184.7182 L932.033333,5183.42544 L933.366667,5183.26384 C936.95,5182.77905 941.033333,5180.51671 942.7,5179.62793 L943.533333,5179.14314 L944.366667,5179.62793 C945.95,5180.59751 950.116667,5182.77905 953.7,5183.26384 L955.033333,5183.42544 L955.116667,5184.799 L955.116667,5184.799 Z M943.7,5205.2409 C942.7,5204.75611 940.783333,5203.54414 938.95,5201.36259 C937.366667,5199.50424 936.116667,5197.2419 935.283333,5194.65636 C934.283333,5191.74763 933.783333,5188.43491 933.783333,5184.799 C937.616667,5184.23342 941.866667,5181.97107 943.7,5180.9207 C945.533333,5181.97107 949.783333,5184.23342 953.533333,5184.799 C953.533333,5188.51571 953.033333,5191.90923 952.033333,5194.81796 C951.2,5197.40349 949.95,5199.66584 948.366667,5201.52419 C946.533333,5203.62494 944.7,5204.75611 943.7,5205.2409 L943.7,5205.2409 Z" id="icon-se" sketch:type="MSShapeGroup"></path>
        </g>
    </g>
</svg>