<?xml version="1.0" encoding="UTF-8" standalone="no"?>
<svg width="14px" height="16px" viewBox="0 0 14 16" version="1.1" xmlns="http://www.w3.org/2000/svg" xmlns:xlink="http://www.w3.org/1999/xlink" xmlns:sketch="http://www.bohemiancoding.com/sketch/ns">
    <!-- Generator: Sketch 3.1.1 (8761) - http://www.bohemiancoding.com/sketch -->
    <title>icon-add</title>
    <desc>Created with Sketch.</desc>
    <defs></defs>
    <g id="Page" stroke="none" stroke-width="1" fill="none" fill-rule="evenodd" sketch:type="MSPage">
        <g id="Desktop-HD-2" sketch:type="MSArtboardGroup" transform="translate(-610.000000, -6555.000000)" fill="#FFFFFF">
            <g id="footer" sketch:type="MSLayerGroup" transform="translate(548.000000, 6406.000000)">
                <g id="Group" transform="translate(46.000000, 121.000000)" sketch:type="MSShapeGroup">
                    <path d="M23.0486777,28 C19.4605131,28 16.5505007,30.7984344 16.5505007,34.2423537 C16.5505007,37.6122747 20.2980466,41.484184 22.1038482,43.5571354 C22.6174104,44.1476215 23.4841118,44.1476215 23.9971532,43.5571354 C25.798267,41.484184 29.5505007,37.7192722 29.5505007,34.2423537 C29.5510215,30.7979344 26.6410091,28 23.0486777,28 L23.0486777,28 Z M23.0486777,36.6962962 C21.5137203,36.6962962 20.2740873,35.5018242 20.2740873,34.0288587 C20.2740873,32.5598931 21.5137203,31.3654211 23.0486777,31.3654211 C24.5831141,31.3654211 25.8279557,32.5598931 25.8279557,34.0288587 C25.8279557,35.5023242 24.583635,36.6962962 23.0486777,36.6962962 L23.0486777,36.6962962 Z" id="icon-add"></path>
                </g>
            </g>
        </g>
    </g>
</svg>