<?xml version="1.0" encoding="UTF-8" standalone="no"?>
<svg width="48px" height="48px" viewBox="0 0 48 48" version="1.1" xmlns="http://www.w3.org/2000/svg" xmlns:xlink="http://www.w3.org/1999/xlink" xmlns:sketch="http://www.bohemiancoding.com/sketch/ns">
<defs></defs>
<g id="icon-life-service" transform="translate(232.000000, 12.000000)" sketch:type="MSShapeGroup">
<path d="M19.3833201,22.6715328 C19.998132,23.9659367 20.7495689,25.2603406 21.8425679,26.2141119 C22.935567,27.1678832 24.2335033,27.6447689 25.6680646,27.4403893 C26.8293761,27.3041363 27.7857502,26.6909976 28.6054995,25.8053528 C29.5618737,24.783455 30.2449981,23.5571776 30.7914976,22.2627737 C30.8598101,22.1265207 30.8598101,22.0583942 30.9964349,21.9902676 C31.6795593,21.2408759 31.9528091,20.4233577 31.9528091,19.4014599 C31.9528091,18.7883212 31.6795593,18.5158151 31.2013723,18.379562 C31.2696847,17.3576642 31.3379971,16.4038929 31.3379971,15.3819951 C31.3379971,14.4282238 31.1330598,13.5425791 30.6548727,12.7250608 C29.4935612,10.6131387 28.8787493,10.5450122 27.7174378,10.6812652 C27.3075632,10.6812652 26.6927512,10.136253 25.8046895,10 L24.3701282,10 C24.3018158,10 24.2335033,10.0681265 24.1651909,10.0681265 C23.4137541,10.136253 22.7306297,10.3406326 22.0475053,10.6131387 C20.612944,11.2944039 19.519945,12.2481752 19.0417579,13.8832117 C18.7685081,14.9051095 18.7685081,15.9270073 18.8368206,16.9489051 C18.905133,17.4257908 18.9734454,17.9026764 18.9734454,18.4476886 C18.4952584,18.5158151 18.290321,18.7201946 18.2220086,19.1970803 C18.0170713,20.2189781 18.290321,21.1046229 18.905133,21.8540146 C19.0417579,22.1265207 19.2466952,22.3990268 19.3833201,22.6715328 L19.3833201,22.6715328 Z M19.0417579,19.1970803 C19.1100703,19.0608273 19.2466952,18.8564477 19.3833201,18.8564477 C19.519945,18.8564477 19.7248823,18.9927007 19.7931947,19.1289538 C19.998132,19.4014599 20.0664445,19.6739659 20.2713818,20.0145985 C20.1347569,19.3333333 19.998132,19.7420925 19.9298196,19.0608273 C19.8615072,18.5158151 19.7931947,18.8564477 19.8615072,18.3114355 C20.2713818,18.4476886 21.8425679,18.243309 22.6623172,18.1751825 C24.028566,17.9708029 24.5067531,17.4939173 26.8293761,16.1313869 C26.8976885,16.1995134 27.1709383,15.9270073 27.2392507,15.9270073 C27.444188,15.7226277 27.5808129,16.4038929 28.2639373,16.8807786 C28.8104368,17.2895377 30.1766857,17.6982968 30.2449981,18.1751825 C30.2449981,19.2652068 30.0400608,18.6520681 29.8351234,19.7420925 L29.8351234,20.0145985 C29.9717483,19.6739659 30.1083732,19.4695864 30.2449981,19.1970803 C30.381623,18.9927007 30.4499354,18.7883212 30.7231852,18.8564477 C30.9964349,18.9245742 31.1330598,19.1289538 31.1330598,19.4014599 C31.2013723,20.1508516 30.9964349,20.8321168 30.4499354,21.377129 C30.3133105,21.513382 30.1766857,21.7177616 30.1083732,21.9221411 C29.6301861,22.9440389 29.2203115,23.9659367 28.5371871,24.8515815 C27.2392507,26.622871 24.9166277,27.1678832 23.0721919,26.1459854 C22.320755,25.7372263 21.7742555,25.1240876 21.3643808,24.4428224 C20.8861938,23.6253041 20.4763191,22.7396594 20.0664445,21.8540146 C19.998132,21.7177616 19.9298196,21.5815085 19.7931947,21.4452555 C19.2466952,20.9002433 19.0417579,20.2189781 19.0417579,19.4695864 C18.9734454,19.4014599 18.9734454,19.2652068 19.0417579,19.1970803 L19.0417579,19.1970803 Z M37.6910541,33.2992701 C37.4178043,32.1411192 36.8029924,31.2554745 35.8466182,30.5060827 C34.412057,29.4841849 33.4556828,28.9391727 31.7478718,28.3941606 C31.7478718,28.4622871 31.6795593,28.5304136 31.6795593,28.5985401 C30.8598101,32.0048662 28.2639373,35.6836983 25.1898775,37.3187348 C25.0532526,37.3868613 24.9166277,37.3868613 24.7800029,37.3187348 C24.028566,36.7055961 22.320755,35.6155718 21.8425679,34.9343066 C20.4763191,33.2992701 19.5882574,32.2773723 18.905133,30.5060827 C18.7001957,30.0291971 18.3586335,29.0754258 18.2220086,28.5985401 C17.6755091,28.8029197 17.7438215,28.8029197 17.1290095,29.0072993 C15.7627607,29.4841849 14.5331368,30.0973236 13.5084502,31.0510949 C13.0985756,31.459854 12.7570134,31.8686131 12.6203885,32.4136253 C12.4837636,32.8223844 12.3471387,33.163017 12.2788263,33.5717762 C11.9372641,35.0024331 12.0055765,36.43309 12.0055765,37.9318735 C12.0055765,37.9318735 12.0055765,37.9318735 12.0055765,38 L37.9643038,38 C38.0326163,36.43309 38.0326163,34.86618 37.6910541,33.2992701 L37.6910541,33.2992701 Z M27.7174378,32.0048662 C27.9906876,32.2092457 28.2639373,32.2773723 28.6054995,32.1411192 C28.9470617,32.0048662 29.0836866,31.7323601 29.0836866,31.3917275 L29.0836866,29.0754258 C29.0836866,28.7347932 28.9470617,28.3941606 28.6054995,28.2579075 C28.2639373,28.1216545 27.9906876,28.189781 27.7174378,28.3941606 C27.1026258,28.8029197 26.4878139,29.2116788 25.8730019,29.620438 C25.2581899,29.0072993 24.7800029,29.0072993 24.0968785,29.620438 C23.4820665,29.2116788 22.8672545,28.8029197 22.2524426,28.3260341 C21.9791928,28.1216545 21.7059431,28.053528 21.3643808,28.2579075 C21.0911311,28.3941606 20.9545062,28.6666667 20.9545062,29.0072993 L20.9545062,31.3917275 C20.9545062,31.7323601 21.0911311,32.0048662 21.3643808,32.2092457 C21.7059431,32.3454988 21.9791928,32.2773723 22.2524426,32.0729927 C22.8672545,31.6642336 23.4820665,31.2554745 24.0968785,30.8467153 C24.7800029,31.459854 25.1215651,31.459854 25.8730019,30.8467153 C26.4878139,31.1192214 27.1709383,31.5279805 27.7174378,32.0048662 L27.7174378,32.0048662 Z M24.3018158,34.4574209 C24.3018158,34.86618 24.643378,35.2068127 25.0532526,35.2068127 C25.4631273,35.2068127 25.8046895,34.86618 25.8046895,34.4574209 C25.8046895,34.0486618 25.4631273,33.7080292 25.0532526,33.7080292 C24.643378,33.7080292 24.3018158,34.0486618 24.3018158,34.4574209 L24.3018158,34.4574209 Z"></path>
</g>
</svg>