<?xml version="1.0" encoding="UTF-8" standalone="no"?>
<svg width="49px" height="48px" viewBox="0 0 49 48" version="1.1" xmlns="http://www.w3.org/2000/svg" xmlns:xlink="http://www.w3.org/1999/xlink" xmlns:sketch="http://www.bohemiancoding.com/sketch/ns">
<title>icon-security</title>
<defs></defs>
<g id="icon-security" transform="translate(87.000000, 12.000000)" sketch:type="MSShapeGroup">
<path class="svg-icon" d="M32.3675676,16.4738041 C32.3027027,16.4738041 28.6702703,16.0273349 28.6054054,15.9635535 C27.0486486,15.6446469 25.6216216,15.070615 24.3243243,14.2414579 C24.1297297,14.1138952 23.9351351,14.1138952 23.7405405,14.2414579 C21.6,15.5170843 19.2648649,16.2186788 16.7351351,16.2824601 L15.6324324,16.2824601 L15.6324324,17.3029613 L15.6324324,20.3006834 C15.6324324,21.8314351 15.827027,23.2984055 16.2810811,24.7653759 C16.5405405,25.5307517 17.4486486,28.1457859 18.4864865,29.2938497 L18.4864865,29.2938497 C18.7459459,29.6765376 19.2,30.1867882 19.5243243,30.5694761 C20.9513514,32.2277904 23.0918919,33.5671982 23.8702703,34.0774487 C23.9351351,34.1412301 24.1297297,34.0774487 24.2594595,34.0136674 C28.1513514,31.7175399 30.7459459,28.4646925 31.9135135,24.2551253 C32.1081081,23.6173121 32.5621622,21.0022779 32.5621622,18.2596811 C32.4324324,17.6856492 32.4324324,17.23918 32.3675676,16.4738041 L32.3675676,16.4738041 Z M24.9081081,25.4031891 L24.9081081,27.2528474 C24.9081081,27.7630979 24.5189189,28.2095672 24,28.2095672 C23.4810811,28.2095672 23.0918919,27.7630979 23.0918919,27.2528474 L23.0918919,25.4031891 C21.9891892,25.0205011 21.2756757,24.0637813 21.2756757,22.9157175 C21.2756757,21.4487472 22.5081081,20.2369021 24.0648649,20.2369021 C25.6216216,20.2369021 26.8540541,21.4487472 26.8540541,22.9157175 C26.7243243,24.0637813 25.9459459,25.0205011 24.9081081,25.4031891 L24.9081081,25.4031891 Z M35.9351351,13.3485194 C35.9351351,12.5831435 35.4810811,12.2642369 34.7027027,12.4555809 C30.9405405,13.476082 27.5675676,12.7744875 24.6486486,10.2870159 C24.1945946,9.90432802 23.8054054,9.90432802 23.2864865,10.2870159 C20.3675676,12.7744875 16.9945946,13.4123007 13.2324324,12.4555809 C12.4540541,12.2642369 12,12.5831435 12,13.284738 L12,20.3644647 C12,21.8952164 12.1945946,23.4259681 12.5837838,24.8929385 C14.1405405,30.8246014 17.8378378,35.0979499 23.5459459,37.904328 C23.8702703,38.0318907 24.1297297,38.0318907 24.4540541,37.904328 C25.1027027,37.5216401 25.8162162,37.2027335 26.4648649,36.8200456 C32.2378378,33.1845103 35.4162162,28.1457859 35.9351351,21.5763098 C36.0648649,20.2369021 35.9351351,18.8974943 35.9351351,17.5580866 L36,17.5580866 C35.9351351,16.1548975 35.9351351,14.7517084 35.9351351,13.3485194 L35.9351351,13.3485194 Z M34.2486486,21.0022779 C33.8594595,27.8268793 30.4864865,32.8656036 24.1945946,36.2460137 C24,36.3735763 23.8702703,36.309795 23.6756757,36.2460137 C18.0324324,33.2482916 14.7243243,28.7835991 13.7513514,22.7243736 C13.6216216,21.7676538 13.5567568,20.8109339 13.5567568,19.8542141 L13.5567568,14.5603645 L13.5567568,14.1776765 C17.4486486,14.9430524 20.8216216,14.1138952 23.8702703,11.8177677 C26.9189189,14.1138952 30.3567568,14.9430524 34.1837838,14.1776765 L34.1837838,14.4328018 C34.3135135,16.6651481 34.3783784,18.833713 34.2486486,21.0022779 L34.2486486,21.0022779 Z"></path>
</g>
</svg>