<?xml version="1.0" encoding="UTF-8" standalone="no"?>
<svg width="48px" height="48px" viewBox="0 0 48 48" version="1.1" xmlns="http://www.w3.org/2000/svg" xmlns:xlink="http://www.w3.org/1999/xlink" xmlns:sketch="http://www.bohemiancoding.com/sketch/ns">
    <!-- Generator: Sketch 3.1.1 (8761) - http://www.bohemiancoding.com/sketch -->
    <title>icon-al</title>
    <desc>Created with Sketch.</desc>
    <defs></defs>
    <g id="Page" stroke="none" stroke-width="1" fill="none" fill-rule="evenodd" sketch:type="MSPage">
        <g id="Desktop-HD-2" sketch:type="MSArtboardGroup" transform="translate(-779.000000, -5154.000000)" fill="#FFFFFF">
            <path d="M803,5202 C816.254834,5202 827,5191.25483 827,5178 C827,5164.74517 816.254834,5154 803,5154 C789.745166,5154 779,5164.74517 779,5178 C779,5191.25483 789.745166,5202 803,5202 Z M806.350111,5182.86873 C806.122286,5182.47256 805.619046,5182.34794 805.193772,5182.5141 C804.612566,5182.74107 803.981743,5182.86468 803.323582,5182.86468 C802.46696,5182.86468 801.655903,5182.65292 800.940026,5182.28106 C800.535004,5182.07132 800.05404,5182.16859 799.825203,5182.56173 L795.877248,5189.42331 C795.421598,5190.21464 795.689925,5191.23901 796.522246,5191.61492 C798.502805,5192.50656 800.699038,5193 803.007665,5193 C805.313254,5193 807.515562,5192.50656 809.499159,5191.61796 C810.333505,5191.24509 810.600819,5190.22376 810.143144,5189.43242 L806.350111,5182.86873 Z M817.148004,5168.8102 C815.995716,5166.81211 814.467769,5165.15143 812.706935,5163.87679 C811.96777,5163.34079 810.950151,5163.61943 810.492476,5164.41178 L806.708556,5170.98256 C806.479718,5171.3767 806.624514,5171.87521 806.979921,5172.16094 C807.464935,5172.55002 807.88717,5173.03536 808.218276,5173.60682 C808.645575,5174.3485 808.868337,5175.15604 808.905801,5175.96257 C808.927065,5176.41954 809.25007,5176.78734 809.707745,5176.78633 L817.61783,5176.77822 C818.531155,5176.77721 819.284496,5176.03249 819.192354,5175.12463 C818.974654,5172.96038 818.304343,5170.81132 817.148004,5168.8102 Z M797.132817,5175.96359 C797.170282,5175.15604 797.395069,5174.34749 797.825405,5173.6058 C798.157523,5173.03434 798.581784,5172.54901 799.070849,5172.15892 C799.428281,5171.87217 799.574089,5171.37366 799.345251,5170.97952 L795.55323,5164.41076 C795.096568,5163.61842 794.073887,5163.33978 793.331683,5163.8778 C791.563761,5165.1565 790.026702,5166.81819 788.867326,5168.8183 C787.705924,5170.82044 787.03055,5172.97254 786.807788,5175.13477 C786.714633,5176.04464 787.469999,5176.78734 788.388387,5176.78835 L796.330873,5176.78937 C796.787536,5176.78937 797.112566,5176.41954 797.132817,5175.96359 Z M802.978301,5179.8787 C803.538244,5179.8787 804.056673,5179.73077 804.51131,5179.46733 C805.41856,5178.93437 806.037231,5177.94141 806.037231,5176.81166 C806.037231,5175.67583 805.41856,5174.68692 804.504222,5174.15497 C804.056673,5173.90065 803.532169,5173.7507 802.978301,5173.7507 C802.261411,5173.7507 801.608313,5173.99286 801.090897,5174.39916 C800.374008,5174.95948 799.912282,5175.83288 799.912282,5176.81267 C799.912282,5177.77017 800.352744,5178.62432 801.041282,5179.18464 C801.565786,5179.62235 802.24116,5179.8787 802.978301,5179.8787 Z" id="icon-al" sketch:type="MSShapeGroup"></path>
        </g>
    </g>
</svg>