<?xml version="1.0" encoding="UTF-8" standalone="no"?>
<svg width="321px" height="223px" viewBox="0 0 321 223" version="1.1" xmlns="http://www.w3.org/2000/svg" xmlns:xlink="http://www.w3.org/1999/xlink" xmlns:sketch="http://www.bohemiancoding.com/sketch/ns">
    <!-- Generator: Sketch 3.1.1 (8761) - http://www.bohemiancoding.com/sketch -->
    <title>ihome</title>
    <desc>Created with Sketch.</desc>
    <defs></defs>
    <g id="Page" stroke="none" stroke-width="1" fill="none" fill-rule="evenodd" sketch:type="MSPage">
        <g id="Desktop-HD-2" sketch:type="MSArtboardGroup" transform="translate(-567.000000, -3315.000000)">
            <g id="ihome" sketch:type="MSLayerGroup" transform="translate(567.000000, 3316.000000)">
                <path d="M241.723361,221.204723 L79.6151261,221.204723 C70.690084,221.204723 63.4268908,213.950506 63.4268908,205.033193 L63.4268908,113.178687 L51.4067227,113.178687 C46.5610084,113.178687 42.352605,110.242072 40.6826891,105.696096 C39.0154622,101.15012 40.325042,96.1903855 44.022521,93.0603253 L149.544538,3.73673494 C152.558992,1.1843253 156.393613,-0.218156627 160.341176,-0.218156627 C164.291429,-0.218156627 168.12605,1.1843253 171.140504,3.73673494 L196.896471,25.537 C197.789244,19.9028916 202.683361,15.5826024 208.572437,15.5826024 L225.602353,15.5826024 C232.120672,15.5826024 237.423529,20.8808675 237.423529,27.3935422 L237.423529,59.8440723 L276.66521,93.0603253 C280.362689,96.1903855 281.672269,101.15012 280.005042,105.696096 C278.335126,110.242072 274.124034,113.178687 269.281008,113.178687 L257.911597,113.178687 L257.911597,205.033193 C257.908908,213.950506 250.648403,221.204723 241.723361,221.204723 L241.723361,221.204723 Z M160.341176,10.5288313 C158.937479,10.5288313 157.571429,11.0285663 156.498487,11.9366867 L50.9764706,101.260277 C50.8447059,101.37312 50.6215126,101.561193 50.7828571,101.996446 C50.9442017,102.431699 51.2453782,102.431699 51.4067227,102.431699 L64.182521,102.431699 C69.6978151,102.431699 74.1831933,106.913193 74.1831933,112.423711 L74.1831933,205.033193 C74.1831933,208.023542 76.6194958,210.457735 79.6151261,210.457735 L241.723361,210.457735 C244.716303,210.457735 247.155294,208.023542 247.155294,205.033193 L247.155294,112.423711 C247.155294,106.913193 251.640672,102.431699 257.155966,102.431699 L269.281008,102.431699 C269.445042,102.431699 269.746218,102.431699 269.904874,101.996446 C270.063529,101.561193 269.843025,101.37312 269.711261,101.260277 L226.664538,64.8253012 L226.664538,27.3935422 C226.664538,26.8078313 226.185882,26.3295904 225.599664,26.3295904 L208.569748,26.3295904 C207.98084,26.3295904 207.504874,26.8078313 207.504874,27.3935422 L207.504874,29.2420241 C208.023866,31.2812651 207.685042,33.4037952 206.512605,35.2415301 C204.944874,37.6972169 202.016471,39.2823976 199.053109,39.2823976 C196.485042,39.2823976 194.175126,38.0921687 192.733782,36.0986024 L164.186555,11.934 C163.110924,11.0285663 161.747563,10.5288313 160.341176,10.5288313 L160.341176,10.5288313 Z" id="house" fill="#82C250" sketch:type="MSShapeGroup"></path>
                <g id="wire2" transform="translate(97.806723, 76.915663)"></g>
                <g id="wire1" transform="translate(0.000000, 76.216867)" fill="#00ADEE" sketch:type="MSShapeGroup">
                    <path d="M40.4084034,88.912759 C40.4084034,80.7772892 43.7186555,73.4021687 49.0672269,68.0582289 L39.5640336,58.5632651 C31.7818487,66.3387108 26.9630252,77.0722651 26.9630252,88.912759 C26.9630252,100.750566 31.7818487,111.48412 39.5640336,119.259566 L49.0672269,109.764602 C43.7186555,104.423349 40.4084034,97.0482289 40.4084034,88.912759 Z M13.9156303,88.912759 C13.9156303,73.4800843 20.1973109,59.487506 30.3431933,49.3504096 L20.84,39.8554458 C8.2605042,52.4240482 0.470252101,69.7750602 0.470252101,88.9100723 C0.470252101,108.045084 8.2605042,125.396096 20.84,137.964699 L30.3431933,128.469735 C20.1973109,118.338012 13.9156303,104.345434 13.9156303,88.912759 Z" id="Shape"></path>
                    <path d="M280.276639,88.912759 C280.276639,97.0482289 276.966387,104.423349 271.617815,109.767289 L281.121008,119.262253 C288.903193,111.486807 293.722017,100.753253 293.722017,88.912759 C293.722017,77.0749518 288.903193,66.3413976 281.121008,58.5659518 L271.617815,68.0609157 C276.966387,73.4021687 280.276639,80.7772892 280.276639,88.912759 Z M306.769412,88.912759 C306.769412,104.345434 300.487731,118.338012 290.341849,128.475108 L299.845042,137.970072 C312.424538,125.40147 320.21479,108.050458 320.21479,88.9154458 C320.21479,69.7804337 312.424538,52.4294217 299.845042,39.8608193 L290.341849,49.3557831 C300.485042,59.487506 306.769412,73.4800843 306.769412,88.912759 Z" id="Shape"></path>
                    <path d="M160.550924,101.897807 C166.986016,101.897807 172.202689,96.6856519 172.202689,90.2561325 C172.202689,83.8266131 166.986016,78.6144578 160.550924,78.6144578 C154.115832,78.6144578 148.89916,83.8266131 148.89916,90.2561325 C148.89916,96.6856519 154.115832,101.897807 160.550924,101.897807 Z M160.507899,64.2860361 C167.219832,64.2860361 173.30521,66.9862169 177.75563,71.349494 L187.258824,61.8545301 C180.37479,55.059747 170.925378,50.8523012 160.507899,50.8523012 C149.921008,50.8523012 140.334454,55.1967711 133.423529,62.1876867 L142.926723,71.6826506 C147.404034,67.123241 153.629244,64.2860361 160.507899,64.2860361 Z M160.507899,37.4185663 C174.633613,37.4185663 187.441681,43.1332771 196.762017,52.3595663 L206.267899,42.8619157 C194.51395,31.2014337 178.33916,23.9848313 160.507899,23.9848313 C142.504538,23.9848313 126.195294,31.3384578 114.414454,43.1950723 L123.920336,52.6927229 C133.267563,43.2703012 146.215462,37.4185663 160.507899,37.4185663 Z M160.507899,13.6838434 C181.181513,13.6838434 199.932437,22.055747 213.552605,35.5808313 L223.055798,26.0858675 C207.002017,10.1292771 184.889748,0.250108434 160.507899,0.250108434 C135.956639,0.250108434 113.707227,10.2663012 97.6265546,26.4190241 L107.129748,35.913988 C120.776807,22.1954578 139.664874,13.6838434 160.507899,13.6838434 Z" id="Oval"></path>
                </g>
            </g>
        </g>
    </g>
</svg>