<?xml version="1.0" encoding="utf-8"?>
<!-- Generator: Adobe Illustrator 17.1.0, SVG Export Plug-In . SVG Version: 6.00 Build 0)  -->
<!DOCTYPE svg PUBLIC "-//W3C//DTD SVG 1.1//EN" "http://www.w3.org/Graphics/SVG/1.1/DTD/svg11.dtd">
<svg version="1.1" xmlns="http://www.w3.org/2000/svg" xmlns:xlink="http://www.w3.org/1999/xlink" x="0px" y="0px"
	 viewBox="0 0 144 144" enable-background="new 0 0 144 144" xml:space="preserve">
<g id="back">
</g>
<g id="illustration">
	<circle fill="#82C250" cx="72" cy="72" r="72"/>
	<g>
		<path fill="#FFFFFF" d="M87.099,88h-31c-1.381,0-2.5,1.119-2.5,2.5c0,1.381,1.119,2.5,2.5,2.5h31c1.381,0,2.5-1.119,2.5-2.5
			C89.599,89.119,88.48,88,87.099,88z"/>
		<path fill="#FFFFFF" d="M87.099,97h-31c-1.381,0-2.5,1.119-2.5,2.5c0,1.381,1.119,2.5,2.5,2.5h31c1.381,0,2.5-1.119,2.5-2.5
			C89.599,98.119,88.48,97,87.099,97z"/>
		<path fill="#FFFFFF" d="M87.099,106h-31c-1.381,0-2.5,1.119-2.5,2.5c0,1.381,1.119,2.5,2.5,2.5h31c1.381,0,2.5-1.119,2.5-2.5
			C89.599,107.119,88.48,106,87.099,106z"/>
		<path fill="#FFFFFF" d="M79.599,115h-16c-1.381,0-2.5,1.119-2.5,2.5s1.119,2.5,2.5,2.5h16c1.381,0,2.5-1.119,2.5-2.5
			S80.98,115,79.599,115z"/>
		<path fill="#FFFFFF" d="M97.5,50.76c0-14.103-11.422-25.15-26.004-25.15S45.491,36.657,45.491,50.76
			c0,0.362,0.081,0.704,0.219,1.014c0.208,2.161,1.036,7.76,4.257,13.188l0.778,1.307c3.472,5.827,5.766,9.676,5.766,14.733
			c0,1.381,1.119,2.5,2.5,2.5s2.5-1.119,2.5-2.5c0-6.434-2.714-10.989-6.471-17.292l-0.772-1.299
			c-3.345-5.635-3.627-11.687-3.63-11.747c-0.008-0.214-0.052-0.416-0.11-0.612c0.38-10.955,9.44-19.442,20.969-19.442
			c11.769,0,20.988,8.837,21.002,20.123c-0.034,0.61-0.424,6.28-3.626,11.678l-0.769,1.292c-3.759,6.307-6.475,10.864-6.475,17.3
			c0,1.381,1.119,2.5,2.5,2.5s2.5-1.119,2.5-2.5c0-5.059,2.295-8.91,5.77-14.74l0.774-1.3c4.015-6.768,4.314-13.815,4.325-14.112
			c0-0.015-0.003-0.029-0.003-0.043C97.496,50.791,97.5,50.776,97.5,50.76z"/>
		<path fill="#FFFFFF" d="M72.418,53.106c1.381,0,2.5-1.119,2.5-2.5v-6c0-1.381-1.119-2.5-2.5-2.5s-2.5,1.119-2.5,2.5v6
			C69.918,51.987,71.037,53.106,72.418,53.106z"/>
		<path fill="#FFFFFF" d="M69.918,66.118c0,1.381,1.119,2.5,2.5,2.5s2.5-1.119,2.5-2.5v-6c0-1.381-1.119-2.5-2.5-2.5
			s-2.5,1.119-2.5,2.5V66.118z"/>
	</g>
</g>
</svg>
