<?xml version="1.0" encoding="UTF-8" standalone="no"?>
<svg width="97px" height="128px" viewBox="0 0 97 128" version="1.1" xmlns="http://www.w3.org/2000/svg" xmlns:xlink="http://www.w3.org/1999/xlink" xmlns:sketch="http://www.bohemiancoding.com/sketch/ns">
    <!-- Generator: Sketch 3.1.1 (8761) - http://www.bohemiancoding.com/sketch -->
    <title>lightbulb</title>
    <desc>Created with Sketch.</desc>
    <defs></defs>
    <g id="Page" stroke="none" stroke-width="1" fill="none" fill-rule="evenodd" sketch:type="MSPage">
        <g id="Desktop-HD-2" sketch:type="MSArtboardGroup" transform="translate(-387.000000, -3284.000000)" fill="#00ADEE">
            <path d="M435.5,3300 C417.643917,3300 403.166667,3314.32825 403.166667,3332 C403.166667,3348 419.333333,3364.25 419.333333,3380 L451.666667,3380 C451.666667,3363.75 467.833333,3348 467.833333,3332 C467.833333,3314.32825 453.356083,3300 435.5,3300 L435.5,3300 Z M452.574526,3352.2265 C449.353823,3358.5625 446.062138,3365.0625 444.506854,3372 L426.453487,3372 C424.898456,3365.2735 421.677753,3358.875 418.528031,3352.625 C414.786458,3345.17975 411.25,3338.1485 411.25,3332 C411.25,3318.7655 422.127893,3308 435.5,3308 C448.872107,3308 459.75,3318.76575 459.75,3332 C459.75,3338.07825 456.261031,3344.95325 452.574526,3352.2265 L452.574526,3352.2265 Z M451.666667,3400 C451.666667,3402.211 449.859031,3404 447.625,3404 L446.882849,3404 C445.217177,3408.65625 440.772859,3412 435.499747,3412 C430.226635,3412 425.782318,3408.65625 424.116646,3404 L423.375,3404 C421.140969,3404 419.333333,3402.211 419.333333,3400 C419.333333,3397.789 421.140969,3396 423.375,3396 L447.625,3396 C449.859031,3396 451.666667,3397.789 451.666667,3400 L451.666667,3400 Z M451.666667,3388 C451.666667,3390.211 449.859031,3392 447.625,3392 L423.375,3392 C421.140969,3392 419.333333,3390.211 419.333333,3388 C419.333333,3385.789 421.140969,3384 423.375,3384 L447.625,3384 C449.859031,3384 451.666667,3385.789 451.666667,3388 L451.666667,3388 Z M395.51756,3304.53125 L402.795844,3308.69525 C401.217068,3310.85925 399.85149,3313.15625 398.730432,3315.60925 L391.475893,3311.4685 L395.51756,3304.53125 L395.51756,3304.53125 Z M435.5,3292 C434.110677,3292 432.80825,3292.26575 431.458333,3292.40625 L431.458333,3284 L439.541667,3284 L439.541667,3292.40625 C438.19175,3292.26575 436.889323,3292 435.5,3292 L435.5,3292 Z M411.952492,3299.63275 L407.745117,3292.4295 L414.754883,3288.4295 L418.938766,3295.60925 C416.459961,3296.71875 414.139286,3298.07025 411.952492,3299.63275 L411.952492,3299.63275 Z M472.277651,3315.6095 C471.156594,3313.15625 469.783185,3310.8595 468.204409,3308.6955 L475.482693,3304.5315 L479.524359,3311.469 L472.277651,3315.6095 L472.277651,3315.6095 Z M459.047508,3299.625 C456.868797,3298.07025 454.540039,3296.71875 452.069318,3295.60925 L456.253201,3288.4295 L463.247305,3292.4295 L459.047508,3299.625 L459.047508,3299.625 Z M395.509729,3336 L387,3336 L387,3328 L395.493815,3328 C395.351852,3329.336 395.083333,3330.625 395.083333,3332 C395.083333,3333.3595 395.351852,3334.672 395.509729,3336 L395.509729,3336 Z M484,3328 L484,3336 L475.490271,3336 C475.648148,3334.67175 475.916667,3333.35925 475.916667,3332 C475.916667,3330.625 475.648148,3329.336 475.506185,3328 L484,3328 L484,3328 Z M472.182924,3348.34375 L479.524359,3352.53125 L475.482693,3359.461 L468.867495,3355.67975 C470.059534,3353.26575 471.164677,3350.82825 472.182924,3348.34375 L472.182924,3348.34375 Z M398.7855,3348.3595 C399.788086,3350.844 400.893229,3353.297 402.077185,3355.719 L395.517307,3359.46125 L391.475641,3352.5315 L398.7855,3348.3595 L398.7855,3348.3595 Z" id="lightbulb" sketch:type="MSShapeGroup"></path>
        </g>
    </g>
</svg>