<?xml version="1.0" encoding="utf-8"?>
<!-- Generator: Adobe Illustrator 17.1.0, SVG Export Plug-In . SVG Version: 6.00 Build 0)  -->
<!DOCTYPE svg PUBLIC "-//W3C//DTD SVG 1.1//EN" "http://www.w3.org/Graphics/SVG/1.1/DTD/svg11.dtd">
<svg version="1.1" xmlns="http://www.w3.org/2000/svg" xmlns:xlink="http://www.w3.org/1999/xlink" x="0px" y="0px"
	 viewBox="0 0 144 144" enable-background="new 0 0 144 144" xml:space="preserve">
<g id="back">
</g>
<g id="illustration">
	<circle fill="#82C250" cx="72" cy="72" r="72"/>
	<g>
		<path fill="#FFFFFF" d="M90.945,58H56.611V41.5c0-2.481,2.853-4.5,5.334-4.5h20c2.481,0,3.666,2.019,3.666,4.5V50
			c0,1.381,1.119,2.5,2.5,2.5c1.381,0,2.5-1.119,2.5-2.5v-8.5c0-5.238-3.428-9.5-8.666-9.5h-20c-5.238,0-10.334,4.262-10.334,9.5
			v16.525c-5,0.263-9,4.405-9,9.475v32c0,5.238,5.096,9.5,10.334,9.5h38c5.238,0,8.666-4.262,8.666-9.5v-32
			C99.611,62.262,96.183,58,90.945,58z M94.611,99.5c0,2.485-2.015,4.5-4.5,4.5h-38c-2.485,0-4.5-2.015-4.5-4.5v-32
			c0-2.485,2.015-4.5,4.5-4.5h38c2.485,0,4.5,2.015,4.5,4.5V99.5z"/>
		<path fill="#FFFFFF" d="M72.07,70.75c-4.756,0-9.042,3.869-9.042,8.625c0,3.841,1.583,7.1,5.583,8.214V95
			c0,1.381,1.119,2.5,2.5,2.5c1.381,0,2.5-1.119,2.5-2.5v-7.34c3-1.035,6.667-4.353,6.667-8.285
			C80.278,74.619,76.826,70.75,72.07,70.75z M72.07,83c-1.999,0-3.625-1.626-3.625-3.625c0-1.999,1.626-3.625,3.625-3.625
			c1.999,0,3.625,1.626,3.625,3.625C75.695,81.374,74.069,83,72.07,83z"/>
	</g>
</g>
</svg>
