<?xml version="1.0" encoding="UTF-8" standalone="no"?>
<svg width="167px" height="30px" viewBox="0 0 167 30" version="1.1" xmlns="http://www.w3.org/2000/svg" xmlns:xlink="http://www.w3.org/1999/xlink" xmlns:sketch="http://www.bohemiancoding.com/sketch/ns">
    <!-- Generator: Sketch 3.1.1 (8761) - http://www.bohemiancoding.com/sketch -->
    <title>logo-shuttle</title>
    <desc>Created with Sketch.</desc>
    <defs></defs>
    <g id="ICON" stroke="none" stroke-width="1" fill="none" fill-rule="evenodd" sketch:type="MSPage">
        <g id="logo-shuttle" sketch:type="MSLayerGroup" transform="translate(1.000000, 0.000000)" fill="#231815">
            <path d="M106.4795,9.441 L99.793,9.441 L101.682,2.379 L95.282,4.857 L94.055,9.441 L89.682,9.441 L89.115,11.546 L93.486,11.546 L90.074,24.287 C89.054,28.08 91.853,29.243 97.275,29.243 C98.597,29.243 100.134,29.185 101.351,28.976 L101.985,26.607 C101.136,26.821 100.163,26.924 99.216,26.924 C95.528,26.924 95.472,25.55 96.251,22.656 L99.226,11.546 L105.916,11.546 L109.493,11.546 L106.079,24.287 C105.066,28.08 107.907,29.243 113.341,29.243 C114.657,29.243 116.19,29.185 117.407,28.976 L118.039,26.607 C117.142,26.821 116.164,26.924 115.275,26.924 C111.531,26.924 111.537,25.55 112.308,22.656 L115.285,11.546 L122.715,11.546 L123.277,9.441 L115.851,9.441 L117.738,2.379 L111.285,4.857 L110.058,9.441 L106.4795,9.441 L106.4795,9.441 Z M27.618,4.858 C26.35,4.282 22.649,2.962 18.385,2.962 C14.856,2.962 12.053,4.384 11.485,6.496 C9.891,12.44 28.485,12.232 26.128,21.026 C24.546,26.924 17.554,29.243 9.606,29.243 C5.184,29.243 1.006,28.5 -0.121,28.184 L1.049,23.818 C2.645,24.557 6.764,26.286 11.393,26.286 C15.5,26.286 18.778,25.078 19.536,22.237 C21.245,15.861 2.608,16.232 4.954,7.492 C6.179,2.911 11.626,0.282 19.784,0.282 C23.421,0.282 27.175,0.805 28.643,1.016 L27.618,4.858 Z M36.683,0.701 L42.419,0.701 L38.849,14.026 L38.958,14.026 C40.286,12.601 43.892,8.967 49.893,8.967 C54.688,8.967 55.971,11.865 55.223,14.647 L51.424,28.824 L45.627,28.824 L48.877,16.708 C49.537,14.231 49.592,12.075 46.692,12.075 C41.004,12.075 37.678,18.391 37.042,20.765 L34.884,28.824 L29.15,28.824 L36.683,0.701 Z M75.831,24.182 L75.726,24.182 C74.404,25.61 70.845,29.243 64.894,29.243 C60.05,29.243 58.755,26.398 59.521,23.551 L63.3,9.442 L69.091,9.442 L65.851,21.553 C65.205,23.967 65.136,26.185 68.031,26.185 C73.717,26.185 77.039,19.861 77.674,17.496 L79.838,9.442 L85.574,9.442 L80.385,28.824 L74.586,28.824 L75.831,24.182 Z M106.4795,9.441 L107.215,9.441 L106.654,11.546 L105.916,11.546 L105.178,11.546 L105.744,9.441 L106.4795,9.441 L106.4795,9.441 Z M129.304,0.701 L135.048,0.701 L127.509,28.824 L121.769,28.824 L129.304,0.701 Z M152.622,15.078 L142.145,15.078 C142.596,13.965 144.301,10.759 148.721,10.759 C153.044,10.759 153.023,13.598 152.622,15.078 L152.622,15.078 L152.622,15.078 Z M141.546,16.915 L157.819,16.915 C158.817,13.183 158.313,8.966 149.514,8.966 C140.938,8.966 136.875,12.915 135.438,18.282 C133.35,26.082 138.553,29.242 146.088,29.242 C149.508,29.242 151.733,28.823 154.279,28.134 L154.771,26.285 C152.951,26.82 151.144,27.077 149.404,27.077 C141.247,27.078 140.532,20.706 141.546,16.915 L141.546,16.915 Z" id="Shape" sketch:type="MSShapeGroup"></path>
            <path d="M161.771,0.282 C163.74,0.282 165.312,1.883 165.312,3.883 C165.312,5.916 163.74,7.5 161.757,7.5 C159.786,7.5 158.187,5.916 158.187,3.883 C158.187,1.883 159.787,0.282 161.757,0.282 L161.771,0.282 L161.771,0.282 Z M161.757,0.841 C160.169,0.841 158.876,2.203 158.876,3.883 C158.876,5.595 160.169,6.94 161.771,6.94 C163.373,6.956 164.654,5.595 164.654,3.9 C164.654,2.202 163.373,0.841 161.771,0.841 L161.757,0.841 L161.757,0.841 Z M161.085,5.978 L160.446,5.978 L160.446,1.96 C160.778,1.913 161.1,1.864 161.579,1.864 C162.188,1.864 162.587,1.993 162.827,2.169 C163.067,2.344 163.198,2.616 163.198,3.002 C163.198,3.528 162.843,3.849 162.413,3.978 L162.413,4.011 C162.767,4.073 163.005,4.394 163.085,4.987 C163.179,5.611 163.274,5.85 163.339,5.978 L162.667,5.978 C162.571,5.85 162.476,5.481 162.396,4.953 C162.3,4.441 162.042,4.249 161.533,4.249 L161.086,4.249 L161.086,5.978 L161.085,5.978 Z M161.085,3.755 L161.548,3.755 C162.077,3.755 162.527,3.563 162.527,3.067 C162.527,2.713 162.267,2.362 161.548,2.362 C161.339,2.362 161.196,2.379 161.085,2.394 L161.085,3.755 L161.085,3.755 Z" id="Shape" sketch:type="MSShapeGroup"></path>
        </g>
    </g>
</svg>