<?xml version="1.0" encoding="UTF-8" standalone="no"?>
<svg width="205px" height="54px" viewBox="0 0 205 54" version="1.1" xmlns="http://www.w3.org/2000/svg" xmlns:xlink="http://www.w3.org/1999/xlink" xmlns:sketch="http://www.bohemiancoding.com/sketch/ns">
    <!-- Generator: Sketch 3.1.1 (8761) - http://www.bohemiancoding.com/sketch -->
    <title>logo-martville--w</title>
    <desc>Created with Sketch.</desc>
    <defs></defs>
    <g id="Page" stroke="none" stroke-width="1" fill="none" fill-rule="evenodd" sketch:type="MSPage">
        <g id="Desktop-HD-2" sketch:type="MSArtboardGroup" transform="translate(-611.000000, -6405.000000)" fill="#FFFFFF">
            <g id="footer" sketch:type="MSLayerGroup" transform="translate(548.000000, 6406.000000)">
                <g id="智慧家居解決方案-4-+-Smartville_Logo-RGB-01-6" transform="translate(62.000000, 0.000000)" sketch:type="MSShapeGroup">
                    <g id="logo-martville--w" transform="translate(1.500000, -0.500000)">
                        <path d="M21.0740461,23.962625 L8.38092166,16.5549286 L21.9351705,8.54530357 L34.7505069,15.9435357 C34.8962212,16.0287143 35.0767189,16.0277679 35.2224332,15.9435357 L37.6807742,14.502125 C37.8255484,14.4169464 37.9148571,14.2617321 37.9148571,14.0923214 C37.9148571,13.9229107 37.8255484,13.7676964 37.6807742,13.6834643 L22.7850138,5.07096429 C22.2651429,4.76810714 21.5920369,4.76810714 21.0693456,5.07475 L4.13358525,15.0794464 C3.6118341,15.3870357 3.2875023,15.9548929 3.2875023,16.5625 C3.2875023,17.1710536 3.6118341,17.7389107 4.13640553,18.0465 L18.5122949,26.4328036 L18.5122949,41.426125 L4.00197235,32.9868214 C3.85625806,32.9016429 3.67764055,32.9035357 3.53192627,32.9877679 C3.38715207,33.072 3.29690323,33.2281607 3.29690323,33.3975714 L3.29690323,36.2775536 C3.29690323,36.4469643 3.38621198,36.603125 3.53192627,36.6883036 L19.3574378,45.9008393 C19.6187834,46.0541607 19.9167926,46.1346071 20.2176221,46.1346071 C20.5156313,46.1346071 20.8089401,46.0551071 21.0655853,45.9065179 C21.5939171,45.6017679 21.9229493,45.030125 21.9229493,44.4168393 L21.9229493,25.4456786 C21.9229493,24.837125 21.5986175,24.2692679 21.0740461,23.962625 Z M112.323152,19.7510179 L93.9452903,19.7510179 C93.7535115,19.7510179 93.5814747,19.8664821 93.5072074,20.0444107 C93.4329401,20.2223393 93.4714839,20.4267679 93.6040369,20.5649464 C94.2903041,21.2747679 94.8778618,22.0858571 95.3526083,22.9783393 C95.4353364,23.1345 95.5970323,23.2319821 95.7718894,23.2319821 L102.09965,23.2319821 L102.09965,45.891375 C102.09965,46.1554286 102.313051,46.3702679 102.575336,46.3702679 L105.078802,46.3702679 C105.341088,46.3702679 105.554488,46.156375 105.554488,45.891375 L105.554488,23.2310357 L112.322212,23.2310357 C112.584498,23.2310357 112.798839,23.0161964 112.798839,22.7521429 L112.798839,20.2308571 C112.799779,19.9658571 112.586378,19.7510179 112.323152,19.7510179 Z M49.8869309,19.7510179 L46.6736959,19.7510179 C46.4706359,19.7510179 46.2901382,19.8806786 46.2233917,20.07375 L39.0260461,41.075 L31.8014378,20.07375 C31.7356313,19.8806786 31.5551336,19.7510179 31.3520737,19.7510179 L28.1378986,19.7510179 C27.8756129,19.7510179 27.662212,19.9658571 27.662212,20.2299107 L27.662212,45.8904286 C27.662212,46.1544821 27.8756129,46.3693214 28.1378986,46.3693214 L30.2380645,46.3693214 C30.5003502,46.3693214 30.7137512,46.1554286 30.7137512,45.8904286 L30.7137512,26.0731607 L37.5877051,46.0465893 C37.6535115,46.2396607 37.8340092,46.3693214 38.0370691,46.3693214 L40.0018618,46.3693214 C40.2049217,46.3693214 40.3854194,46.2396607 40.4512258,46.0465893 L47.3232995,26.0731607 L47.3232995,43.8082857 C47.3232995,44.0382679 47.4868756,44.2360714 47.7115576,44.2786607 C47.9334194,44.3203036 48.1599816,44.1972679 48.2427097,43.9814821 L50.3297143,38.5669643 C50.3513364,38.511125 50.3626175,38.4524464 50.3626175,38.3928214 L50.3626175,20.2299107 C50.3635576,19.9658571 50.1501567,19.7510179 49.8869309,19.7510179 Z M64.9114839,20.0576607 C64.8400369,19.8731071 64.6642396,19.7510179 64.4677604,19.7510179 L61.4566452,19.7510179 C61.2601659,19.7510179 61.0843687,19.8721607 61.0129217,20.0567143 L51.1231521,45.7162857 C51.0658065,45.8639286 51.0846083,46.0295536 51.1739171,46.1601607 C51.2622857,46.2917143 51.4089401,46.3693214 51.5659355,46.3693214 L54.2094747,46.3693214 C54.406894,46.3693214 54.5836313,46.2462857 54.6541382,46.0607857 L57.5825253,38.3171071 L68.2704332,38.3171071 L70.8820092,45.2203571 C70.9637972,45.4370893 71.1903594,45.5610714 71.4131613,45.520375 C71.6387834,45.4787321 71.8032995,45.2799821 71.8032995,45.0490536 L71.8032995,38.0899643 C71.8032995,38.0312857 71.7920184,37.9726071 71.7713364,37.9167679 L64.9114839,20.0576607 Z M67.034212,35.0481429 L58.8140461,35.0481429 L62.8949862,24.0099464 L67.034212,35.0481429 L67.034212,35.0481429 Z M90.5224147,33.8234643 C91.7605161,32.3072857 92.3884977,30.4797321 92.3884977,28.3900179 C92.3884977,26.9826786 92.0745069,25.6292857 91.4559263,24.3705357 C90.830765,23.1032679 89.9687005,22.0763929 88.8941751,21.3183036 C88.1026175,20.7589643 87.21047,20.352 86.241235,20.1087679 C85.2936221,19.8712143 84.0329585,19.7510179 82.4949677,19.7510179 L75.6510968,19.7510179 C75.3888111,19.7510179 75.1754101,19.9658571 75.1754101,20.2299107 L75.1754101,45.8904286 C75.1754101,46.1544821 75.3888111,46.3693214 75.6510968,46.3693214 L78.1197788,46.3693214 C78.3820645,46.3693214 78.5954654,46.1554286 78.5954654,45.8904286 L78.5954654,23.2310357 L81.8124608,23.2310357 C83.5713733,23.2310357 84.7981935,23.3228393 85.4581382,23.5036071 C86.0870599,23.6768036 86.6332535,23.9701964 87.0779171,24.3743214 C87.6306912,24.8797143 88.0518525,25.4750179 88.3310599,26.1450893 C88.6140276,26.8208393 88.7578618,27.5893393 88.7578618,28.4269286 C88.7578618,29.792625 88.311318,30.8772321 87.393788,31.7432143 C86.4677972,32.6158214 85.2889217,33.0407679 83.7904147,33.0407679 L81.3762581,33.0407679 C81.2032811,33.0407679 81.0444055,33.1354107 80.9607373,33.2858929 C80.8770691,33.4373214 80.8808295,33.6228214 80.9710783,33.7714107 L88.5312995,46.1421786 C88.617788,46.2831964 88.771023,46.3702679 88.9364793,46.3702679 L91.911871,46.3702679 C92.0848479,46.3702679 92.2437235,46.275625 92.3273917,46.1241964 C92.4110599,45.9727679 92.4072995,45.7863214 92.3170507,45.6386786 L86.5448848,36.2434821 C88.1054378,35.9576607 89.4403687,35.1465714 90.5224147,33.8234643 L90.5224147,33.8234643 Z" id="Shape"></path>
                        <path d="M42.5128479,11.2662857 L22.6552811,-0.204428571 C22.2030968,-0.46375 21.6249401,-0.461857143 21.175576,-0.200642857 L0.333732719,11.9675893 C-0.122211982,12.2335357 -0.405179724,12.7275714 -0.405179724,13.2585179 L-0.405179724,38.5092321 C-0.405179724,39.0335536 -0.127852535,39.52475 0.318691244,39.7916429 L21.42,52.4293036 C21.6484424,52.5665357 21.9107281,52.6384643 22.1777143,52.6384643 C22.4494009,52.6384643 22.7163871,52.5646429 22.9457696,52.4226786 L28.3193364,49.203875 C28.3738618,49.1716964 28.4001843,49.1054464 28.3832627,49.044875 C28.366341,48.9833571 28.3108756,48.9407679 28.2469493,48.9407679 L25.6616959,48.9407679 C25.6363134,48.9407679 25.611871,48.9473929 25.5902488,48.9606429 L22.1777143,50.9831607 L1.21741935,38.4287857 L1.21741935,13.3399107 L21.9182488,1.25401786 L41.6348018,12.6423929 L41.6348018,23.1799286 C41.6348018,23.2490179 41.6846267,23.3086429 41.7523134,23.32 C41.82,23.3323036 41.8858065,23.2925536 41.9093088,23.2263036 L43.2498802,19.3128214 C43.2555207,19.2976786 43.2574009,19.2825357 43.2574009,19.2664464 L43.2574009,12.5600536 C43.2574009,12.0272143 42.972553,11.5312857 42.5128479,11.2662857 L42.5128479,11.2662857 Z" id="Shape"></path>
                        <path d="M135.506765,19.8210536 C135.258581,19.6951786 135.023558,19.6951786 134.851521,19.6951786 L128.801088,19.6951786 C128.156184,19.6951786 127.620332,20.0387321 127.410691,20.5658929 L120.098654,36.3277143 C119.788424,37.0640357 120.089253,37.9404286 120.792442,38.2934464 C121.511613,38.6019821 122.40282,38.2877679 122.738433,37.6082321 L129.693235,22.584625 L132.550175,22.584625 L122.744074,43.4637857 L119.212147,43.4637857 L111.764737,27.6773571 C111.529714,27.1994107 111.006083,26.877625 110.46271,26.877625 C110.253069,26.877625 110.05471,26.9249464 109.896774,27.0044464 C109.13718,27.3328571 108.800627,28.196 109.13812,28.9853214 L116.954046,45.6017679 C117.252055,46.0995893 117.686378,46.3513393 118.247613,46.3513393 L123.707668,46.3513393 C124.288645,46.3513393 124.821677,45.9926429 125.023797,45.4834643 L136.16859,21.776375 C136.339687,21.3769821 136.352848,20.9321607 136.205253,20.5583214 C136.073641,20.2204464 135.816055,19.9535536 135.506765,19.8210536 Z M159.858912,12.2278571 L153.808479,12.2278571 C153.031023,12.2278571 152.374839,12.8903571 152.374839,13.6730536 L152.374839,31.5387857 C152.374839,32.376375 153.017862,33.0578036 153.808479,33.0578036 C154.599097,33.0578036 155.24212,32.3754286 155.24212,31.5387857 L155.24212,15.191125 L158.424332,15.191125 L158.424332,44.9089821 C158.424332,45.6907321 159.080516,46.3503929 159.857972,46.3503929 C160.689954,46.3503929 161.36682,45.7030357 161.36682,44.9089821 L161.36682,13.6730536 C161.36682,13.5784107 161.330157,13.4903929 161.270931,13.4165714 C161.15906,12.7237857 160.588424,12.2278571 159.858912,12.2278571 Z M172.386581,12.2278571 L166.336147,12.2278571 C165.559631,12.2278571 164.903447,12.8903571 164.903447,13.6730536 L164.903447,31.5387857 C164.903447,32.376375 165.54741,33.0578036 166.336147,33.0578036 C167.126765,33.0578036 167.769788,32.3754286 167.769788,31.5387857 L167.769788,15.191125 L170.95106,15.191125 L170.95106,44.9089821 C170.95106,45.6907321 171.608184,46.3503929 172.385641,46.3503929 C173.217622,46.3503929 173.894488,45.7030357 173.894488,44.9089821 L173.894488,13.6730536 C173.894488,13.5793571 173.858765,13.4913393 173.800479,13.4175179 C173.688608,12.7237857 173.117032,12.2278571 172.386581,12.2278571 Z M202.716774,28.7742679 C203.529014,28.7742679 204.189899,28.109875 204.189899,27.2921607 L204.189899,21.1829643 C204.189899,20.36525 203.529014,19.7008571 202.716774,19.7008571 L178.90518,19.7008571 C178.09294,19.7008571 177.431115,20.3661964 177.431115,21.1829643 L177.431115,44.8692321 C177.431115,45.686 178.09294,46.3503929 178.90518,46.3503929 L202.716774,46.3503929 C203.529014,46.3503929 204.189899,45.686 204.189899,44.8692321 L204.189899,38.6578214 C204.189899,37.8410536 203.529014,37.1757143 202.716774,37.1757143 L184.948092,37.1757143 C184.136793,37.1757143 183.475908,37.8410536 183.475908,38.6578214 C183.475908,39.4745893 184.136793,40.140875 184.948092,40.140875 L201.24553,40.140875 L201.24553,43.3861786 L180.379244,43.3861786 L180.379244,22.6669643 L201.24553,22.6669643 L201.24553,25.8091071 L184.948092,25.8091071 C184.136793,25.8091071 183.475908,26.4744464 183.475908,27.2921607 L183.475908,33.0379286 C183.475908,33.8546964 184.136793,34.5200357 184.948092,34.5200357 L198.514562,34.5200357 C199.326802,34.5200357 199.987687,33.8546964 199.987687,33.0379286 C199.987687,32.2202143 199.326802,31.554875 198.514562,31.554875 L186.423097,31.554875 L186.423097,28.7742679 L202.716774,28.7742679 L202.716774,28.7742679 Z M147.330304,19.6213571 L141.279871,19.6213571 C140.502415,19.6213571 139.84529,20.2838571 139.84529,21.0665536 L139.84529,31.5387857 C139.84529,32.376375 140.490194,33.0578036 141.279871,33.0578036 C142.071429,33.0578036 142.714452,32.3754286 142.714452,31.5387857 L142.714452,22.584625 L145.894783,22.584625 L145.894783,44.9089821 C145.894783,45.6907321 146.551908,46.3503929 147.329364,46.3503929 C148.162286,46.3503929 148.839152,45.7030357 148.839152,44.9089821 L148.839152,21.0665536 C148.839152,20.9728571 148.802488,20.8848393 148.743263,20.8110179 C148.632332,20.1172857 148.061696,19.6213571 147.330304,19.6213571 Z M144.344571,15.9416429 C146.176811,15.9416429 147.667797,14.4415536 147.667797,12.5960179 C147.667797,10.7504821 146.176811,9.25039286 144.344571,9.25039286 C142.512332,9.25039286 141.021346,10.7504821 141.021346,12.5960179 C141.021346,14.4415536 142.512332,15.9416429 144.344571,15.9416429 Z" id="Shape"></path>
                    </g>
                </g>
            </g>
        </g>
    </g>
</svg>