<?xml version="1.0" encoding="UTF-8" standalone="no"?>
<svg width="122px" height="21px" viewBox="0 0 122 21" version="1.1" xmlns="http://www.w3.org/2000/svg" xmlns:xlink="http://www.w3.org/1999/xlink" xmlns:sketch="http://www.bohemiancoding.com/sketch/ns">
    <!-- Generator: Sketch 3.1.1 (8761) - http://www.bohemiancoding.com/sketch -->
    <title>logo-shuttle</title>
    <desc>Created with Sketch.</desc>
    <defs></defs>
    <g id="Page" stroke="none" stroke-width="1" fill="none" fill-rule="evenodd" sketch:type="MSPage">
        <g id="Desktop-HD-2" sketch:type="MSArtboardGroup" transform="translate(-593.000000, -6527.000000)" fill="#FFFFFF">
            <g id="footer" sketch:type="MSLayerGroup" transform="translate(548.000000, 6406.000000)">
                <g id="Group" transform="translate(46.000000, 121.000000)" sketch:type="MSShapeGroup">
                    <path d="M77.8119838,6.56204785 L72.9280714,6.56204785 L74.3078232,1.50241449 L69.6331744,3.27779986 L68.7369566,6.56204785 L65.5428567,6.56204785 L65.1287121,8.07019402 L68.3213511,8.07019402 L65.829179,17.198598 C65.0841568,19.9161269 67.1285853,20.7493687 71.0888893,20.7493687 C72.0544964,20.7493687 73.1771426,20.7078141 74.0660563,20.5580742 L74.5291387,18.8607828 C73.9090173,19.014105 73.1983246,19.0879003 72.5066226,19.0879003 C69.8128563,19.0879003 69.7719531,18.1034857 70.3409455,16.0300534 L72.5139268,8.07019402 L77.4003956,8.07019402 L80.013086,8.07019402 L77.5194531,17.198598 C76.7795438,19.9161269 78.8546496,20.7493687 82.8237186,20.7493687 C83.7849433,20.7493687 84.9046678,20.7078141 85.7935815,20.5580742 L86.255203,18.8607828 C85.6000218,19.014105 84.885677,19.0879003 84.2363391,19.0879003 C81.5016695,19.0879003 81.506052,18.1034857 82.0692011,16.0300534 L84.2436432,8.07019402 L89.6706183,8.07019402 L90.0811109,6.56204785 L84.6570575,6.56204785 L86.0353485,1.50241449 L81.3219877,3.27779986 L80.4257699,6.56204785 L77.8119838,6.56204785 L77.8119838,6.56204785 Z M20.2104499,3.27851632 C19.2842851,2.86583594 16.5810233,1.92011008 13.4665385,1.92011008 C10.888908,1.92011008 8.84155787,2.93891476 8.42668279,4.45207614 C7.26240307,8.71070835 20.8437187,8.56168489 19.1221332,14.8622252 C17.9666184,19.0879003 12.8595646,20.7493687 7.05423512,20.7493687 C3.82434495,20.7493687 0.772675776,20.2170397 -0.0505006629,19.9906386 L0.804083573,16.8625787 C1.96982412,17.3920419 4.97839888,18.6307995 8.35948472,18.6307995 C11.3592945,18.6307995 13.7535912,17.765317 14.3072449,15.729857 C15.5555222,11.1617145 1.94279881,11.4275208 3.65634976,5.16566929 C4.55110676,1.88357067 8.52967115,-9.09494702e-13 14.4883876,-9.09494702e-13 C17.1449028,-9.09494702e-13 19.8868765,0.37470805 20.9591241,0.525880896 L20.2104499,3.27851632 Z M26.8316517,0.300196315 L31.0213057,0.300196315 L28.4137281,9.84701231 L28.4933432,9.84701231 C29.4633329,8.82605825 32.0972053,6.2224463 36.480419,6.2224463 C39.9827535,6.2224463 40.9198745,8.29874444 40.3735249,10.2919333 L37.5986826,20.4491724 L33.3644734,20.4491724 L35.7383185,11.7685553 C36.2203916,9.9938864 36.2605644,8.44920082 34.1423642,8.44920082 C29.98777,8.44920082 27.5584135,12.9743558 27.0938702,14.6752294 L25.5176371,20.4491724 L21.3294439,20.4491724 L26.8316517,0.300196315 Z M55.4258941,17.1233698 L55.3492007,17.1233698 C54.3835935,18.1464732 51.7840505,20.7493687 47.4373575,20.7493687 C43.8992327,20.7493687 42.9533468,18.7110429 43.5128438,16.6712842 L46.2730778,6.56276431 L50.5029046,6.56276431 L48.1363636,15.2397991 C47.6645163,16.9693311 47.6141177,18.5584371 49.7286659,18.5584371 C53.8817992,18.5584371 56.3082341,14.0275505 56.7720469,12.333125 L58.3526625,6.56276431 L62.5423165,6.56276431 L58.7521989,20.4491724 L54.5165288,20.4491724 L55.4258941,17.1233698 Z M94.4833154,0.300196315 L98.6788127,0.300196315 L93.1722224,20.4491724 L88.9796468,20.4491724 L94.4833154,0.300196315 Z M111.515106,10.6007272 L103.86256,10.6007272 C104.191977,9.80330831 105.437332,7.5063408 108.665762,7.5063408 C111.823341,7.5063408 111.808002,9.54036786 111.515106,10.6007272 L111.515106,10.6007272 L111.515106,10.6007272 Z M103.425042,11.9168623 L115.311067,11.9168623 C116.04002,9.24303738 115.671892,6.22172984 109.24498,6.22172984 C102.98095,6.22172984 100.013279,9.05102637 98.9636741,12.8962618 C97.4385699,18.4846418 101.238913,20.7486522 106.742582,20.7486522 C109.240597,20.7486522 110.865768,20.4484559 112.725402,19.9548157 L113.084766,18.630083 C111.755412,19.0133886 110.435554,19.1975185 109.164634,19.1975185 C103.206648,19.198235 102.684402,14.6329583 103.425042,11.9168623 L103.425042,11.9168623 Z M118.197663,-9.09494702e-13 C119.635848,-9.09494702e-13 120.784058,1.14705084 120.784058,2.57996881 C120.784058,4.03652993 119.635848,5.17140096 118.187437,5.17140096 C116.747791,5.17140096 115.579859,4.03652993 115.579859,2.57996881 C115.579859,1.14705084 116.748522,-9.06949328e-13 118.187437,-9.06949328e-13 L118.197663,-9.06949328e-13 L118.197663,-9.09494702e-13 Z M118.187437,0.400500573 C117.02754,0.400500573 116.083115,1.37631771 116.083115,2.57996881 C116.083115,3.80654659 117.02754,4.77018393 118.197663,4.77018393 C119.367786,4.78164727 120.303446,3.80654659 120.303446,2.59214861 C120.303446,1.37560125 119.367786,0.400500573 118.197663,0.400500573 L118.187437,0.400500573 L118.187437,0.400500573 Z M117.696599,4.08095039 L117.229864,4.08095039 L117.229864,1.20221818 C117.472362,1.16854461 117.707555,1.13343812 118.057423,1.13343812 C118.502245,1.13343812 118.79368,1.22586133 118.96898,1.35195811 C119.144279,1.47733843 119.239963,1.67221527 119.239963,1.94876844 C119.239963,2.32562587 118.980666,2.5556092 118.666588,2.64803241 L118.666588,2.67167556 C118.925155,2.71609602 119.098993,2.94607935 119.157427,3.37093953 C119.226085,3.81800994 119.295475,3.98924364 119.342952,4.08095039 L118.852114,4.08095039 C118.781994,3.98924364 118.712604,3.72487027 118.654171,3.34657992 C118.584052,2.97975292 118.395605,2.8421928 118.023824,2.8421928 L117.697329,2.8421928 L117.697329,4.08095039 L117.696599,4.08095039 Z M117.696599,2.48826206 L118.03478,2.48826206 C118.421169,2.48826206 118.749856,2.35070193 118.749856,1.99533828 C118.749856,1.7417118 118.559948,1.49023469 118.03478,1.49023469 C117.882124,1.49023469 117.777675,1.50241449 117.696599,1.51316138 L117.696599,2.48826206 L117.696599,2.48826206 Z" id="logo-shuttle"></path>
                </g>
            </g>
        </g>
    </g>
</svg>