<?xml version="1.0" encoding="UTF-8" standalone="no"?>
<svg width="52px" height="36px" viewBox="0 0 52 36" version="1.1" xmlns="http://www.w3.org/2000/svg" xmlns:xlink="http://www.w3.org/1999/xlink" xmlns:sketch="http://www.bohemiancoding.com/sketch/ns">
    <!-- Generator: Sketch 3.1.1 (8761) - http://www.bohemiancoding.com/sketch -->
    <title>menu_right_home</title>
    <desc>Created with Sketch.</desc>
    <defs>
        <filter x="-50%" y="-50%" width="200%" height="200%" filterUnits="objectBoundingBox" id="filter-1">
            <feOffset dx="0" dy="1" in="SourceAlpha" result="shadowOffsetOuter1"></feOffset>
            <feGaussianBlur stdDeviation="1" in="shadowOffsetOuter1" result="shadowBlurOuter1"></feGaussianBlur>
            <feColorMatrix values="0 0 0 0 0   0 0 0 0 0   0 0 0 0 0  0 0 0 0.21 0" in="shadowBlurOuter1" type="matrix" result="shadowMatrixOuter1"></feColorMatrix>
            <feMerge>
                <feMergeNode in="shadowMatrixOuter1"></feMergeNode>
                <feMergeNode in="SourceGraphic"></feMergeNode>
            </feMerge>
        </filter>
    </defs>
    <g id="Page" stroke="none" stroke-width="1" fill="none" fill-rule="evenodd" sketch:type="MSPage">
        <g id="Desktop-HD" sketch:type="MSArtboardGroup" transform="translate(-1216.000000, -568.000000)">
            <g id="Page-dot" sketch:type="MSLayerGroup" transform="translate(1213.000000, 543.500000)">
                <g id="menu_right_home.png" transform="translate(3.000000, 24.500000)" sketch:type="MSShapeGroup">
                    <circle id="Oval-17" fill="#F9A33A" filter="url(#filter-1)" cx="25" cy="17" r="14"></circle>
                    <path d="M30.7868939,19.1895994 L30.7868939,24.4189599 C30.7868939,24.7402751 30.5169182,25 30.1842695,25 L27.1711476,25 C26.8384989,25 26.5685232,24.7402751 26.5685232,24.4189599 L26.5685232,20.3516795 C26.5685232,20.0309454 26.2985475,19.7706394 25.9658988,19.7706394 L23.5554012,19.7706394 C23.2227526,19.7706394 22.9527768,20.0309454 22.9527768,20.3516795 L22.9527768,24.4189599 C22.9527768,24.7402751 22.6828011,25 22.3501525,25 L19.3370305,25 C19.0043818,25 18.7344061,24.7402751 18.7344061,24.4189599 L18.7344061,19.1895994 C18.7344061,18.8688652 18.4644304,18.6085593 18.1317817,18.6085593 L16.3239086,18.6085593 C15.9912599,18.6085593 15.899661,18.4139109 16.1202215,18.1739413 L24.3617127,9.18350841 C24.5822732,8.94295783 24.9444505,8.93830951 25.1716398,9.17304969 L27.9666118,12.0648861 C28.1931985,12.2996263 28.3776016,12.2299015 28.3776016,11.9091674 L28.3776016,10.4739984 C28.3776016,10.1532643 28.6475773,9.89295833 28.980226,9.89295833 L30.1854748,9.89295833 C30.5181234,9.89295833 30.7880992,10.1532643 30.7880992,10.4739984 L30.7880992,14.4082207 C30.7880992,14.7289548 30.9718996,15.1798419 31.199089,15.4145821 L33.873536,18.183819 C34.1001228,18.4185592 34.0139475,18.6085593 33.6812988,18.6085593 L31.3913262,18.6085593 C31.0568696,18.6085593 30.7868939,18.8688652 30.7868939,19.1895994 L30.7868939,19.1895994 Z" id="Shape-2" fill="#FFFFFF"></path>
                </g>
            </g>
        </g>
    </g>
</svg>