<?xml version="1.0" encoding="UTF-8" standalone="no"?>
<svg width="72px" height="72px" viewBox="0 0 72 72" version="1.1" xmlns="http://www.w3.org/2000/svg" xmlns:xlink="http://www.w3.org/1999/xlink" xmlns:sketch="http://www.bohemiancoding.com/sketch/ns">
    <!-- Generator: Sketch Beta 3.2 (9961) - http://www.bohemiancoding.com/sketch -->
    <title>move</title>
    <desc>Created with Sketch Beta.</desc>
    <defs></defs>
    <g id="ICON" stroke="none" stroke-width="1" fill="none" fill-rule="evenodd" sketch:type="MSPage">
        <path d="M31.4388428,31.1200885 L22.2939331,31.1200886 L22.2939331,31.1200886 C21.3703437,31.0510143 20.6445815,30.2817515 20.6445815,29.3402349 L20.6433192,24.9107981 C20.6445815,23.9224113 19.9515747,23.5273091 19.0969925,24.0183467 L0.606712969,34.6949431 C-0.247869176,35.1859807 -0.246606868,35.987546 0.606712969,36.4798459 L19.0969925,47.1564423 C19.9503124,47.6487422 20.6420569,47.2498531 20.6433192,46.2639909 L20.6445815,41.8345541 C20.6458438,40.8461673 21.4423598,40.0496513 22.4294842,40.0496513 L24.0144322,40.048742 L24.0144322,40.048742 C24.0627368,40.0526927 24.1115947,40.0547371 24.1609307,40.0548001 L31.4388429,40.0548001 L31.4388429,47.1684828 C31.4388429,47.1821003 31.4405416,47.1955297 31.4438919,47.208771 L31.4438919,49.5367654 C31.4438919,50.5238899 30.6461136,51.3216682 29.6589892,51.3216682 L25.2295523,51.3229305 C24.2411656,51.3216682 23.8460634,52.014675 24.337101,52.8692571 L35.0136974,71.3595367 C35.504735,72.2141188 36.3063002,72.2128565 36.7986001,71.3595367 L47.4751966,52.8692571 C47.9674965,52.0159373 47.5686073,51.3241928 46.5827452,51.3229305 L42.1533083,51.3216682 C41.1649216,51.3204059 40.3684056,50.5238899 40.3684056,49.5367654 L40.365881,45.1363617 C40.365881,45.1267439 40.365034,45.1172201 40.3633566,45.1077902 L40.3633566,40.8551236 C40.3700173,40.7925507 40.3734722,40.7289971 40.3735544,40.6646297 L40.3735544,40.0548 L47.1347325,40.0547999 C47.14835,40.0547999 47.1617793,40.0531013 47.1750206,40.0497509 L49.5030151,40.0497509 C50.4901395,40.0497509 51.2879178,40.8475292 51.2879178,41.8346536 L51.2891801,46.2640905 C51.2879178,47.2524772 51.9809246,47.6475795 52.8355067,47.1565419 L71.3257863,36.4799454 C72.1803685,35.9889078 72.1791061,35.1873426 71.3257863,34.6950427 L52.8355067,24.0184463 C51.9821869,23.5261464 51.2904424,23.9250355 51.2891801,24.9108976 L51.2879178,29.3403345 C51.2866555,30.3287212 50.4901395,31.1252372 49.5030151,31.1252372 L45.1026113,31.1277618 C45.0929935,31.1277618 45.0834697,31.1286088 45.0740398,31.1302862 L40.8213732,31.1302863 C40.7588003,31.1236256 40.6952467,31.1201706 40.6308793,31.1200884 L40.3735543,31.1200884 L40.3735542,22.3276835 C40.4426285,21.404094 41.2118914,20.6783318 42.1534079,20.6783318 L46.5828448,20.6770695 C47.5712315,20.6783318 47.9663337,19.985325 47.4752961,19.1307429 L36.7986997,0.640463331 C36.3076621,-0.214118814 35.5060969,-0.212856507 35.013797,0.640463331 L24.3372005,19.1307429 C23.8449006,19.9840627 24.2437898,20.6758072 25.2296519,20.6770695 L29.6590887,20.6783318 C30.6474755,20.6795941 31.4439915,21.4761101 31.4439915,22.4632346 L31.4449008,24.0481826 C31.4409501,24.0964872 31.4389057,24.1453451 31.4388427,24.194681 L31.4388428,31.1200885 Z" id="move" fill-opacity="0.75" fill="#00ADEE" sketch:type="MSShapeGroup"></path>
    </g>
</svg>