<?xml version="1.0" encoding="UTF-8" standalone="no"?>
<svg width="116px" height="131px" viewBox="0 0 116 131" version="1.1" xmlns="http://www.w3.org/2000/svg" xmlns:xlink="http://www.w3.org/1999/xlink" xmlns:sketch="http://www.bohemiancoding.com/sketch/ns">
    <!-- Generator: Sketch 3.1.1 (8761) - http://www.bohemiancoding.com/sketch -->
    <title>section2-icon-1</title>
    <desc>Created with Sketch.</desc>
    <defs></defs>
    <g id="Page" stroke="none" stroke-width="1" fill="none" fill-rule="evenodd" sketch:type="MSPage">
        <g id="Desktop-HD-2" sketch:type="MSArtboardGroup" transform="translate(-322.000000, -1557.000000)" fill="#999999">
            <g id="Group" sketch:type="MSLayerGroup" transform="translate(307.000000, 1557.000000)">
                <path d="M91.380122,1.09160514 C53.192965,-4.94427871 18.7709534,14.1500482 27.1265737,55.907371 C27.1927842,56.2380178 27.2168607,56.5770888 27.1853488,56.9126496 C26.4634068,64.5870253 11.9757051,75.9953934 15.5730229,79.9182265 C17.2806866,81.7803086 19.5392782,82.8150717 21.4746068,83.388965 C23.4534857,83.9758455 24.495504,86.1201358 23.7852462,88.0429417 C22.9666439,90.258837 22.356587,92.7920409 23.2913231,93.8752426 C23.5795334,94.2069425 23.9470547,94.4645802 24.3616668,94.6632491 C26.1882969,95.5383048 26.9562676,97.6913702 25.9864789,99.4579789 C25.6833978,100.009759 25.4939721,100.564698 25.4939721,101.088749 C25.4939721,102.853602 29.1362564,105.017549 31.5042546,106.237994 C32.663823,106.835755 33.4034684,108.006357 33.4427698,109.301566 C33.5642147,113.285825 34.9142711,121.462489 44.0286563,120.699053 C49.026308,120.2789 52.2932815,119.454038 54.4042272,118.63409 C56.4397568,117.843275 58.7079081,119.025812 59.2202427,121.132895 L60.952337,128.258299 C61.3432267,129.866605 62.7949002,131 64.4636166,131 L104.290811,131 C106.357498,131 108.002492,129.284287 107.898042,127.238278 L106.53701,100.581546 C106.489919,99.6591048 106.80256,98.7563197 107.412617,98.0581705 C112.330249,92.4298036 134.510758,65.4501469 130.522905,41.0307215 C128.266084,30.0818191 129.705719,7.13977417 91.380122,1.09160514 Z M98.5487636,43.1399467 L101.722226,41.4410149 C102.725023,40.9042945 103.090928,39.6751638 102.544823,38.7027848 L99.0866152,32.5093316 C98.5363834,31.526027 97.2818547,31.1695791 96.2900618,31.7049338 L93.1069704,33.4147913 C92.1138019,33.9405861 90.6102933,33.7848962 89.6611434,33.1689651 C89.2292114,32.8889964 88.782148,32.6336104 88.3378357,32.3987098 C87.3212824,31.8715493 86.4546672,30.6642698 86.4546672,29.5471266 L86.4546672,26.0044987 C86.4546672,24.8859897 85.5316532,23.9805301 84.4009267,23.9805301 L77.1887626,23.9805301 C76.0607872,23.9805301 75.1363977,24.8859897 75.1363977,26.0044987 L75.1363977,29.5580522 C75.1363977,30.6765611 74.2560267,31.8838406 73.2546047,32.3987098 C72.9010807,32.589908 72.5461812,32.7893003 72.2022863,33.0023496 C71.2338782,33.5936981 69.7372475,33.7275367 68.7454546,33.1689651 L66.3038007,31.80463 C65.3216368,31.2460584 64.0547279,31.5806551 63.4962426,32.5434741 L59.9032285,38.6672766 C59.3433676,39.6287299 59.6735067,40.8687863 60.6680508,41.4191637 L63.1000756,42.7944244 C64.0932442,43.3543617 64.7301375,44.6831886 64.6847434,45.8016976 C64.6847434,46.0584494 64.6737388,46.3042755 64.6847434,46.562393 C64.6984992,47.6699763 64.0354698,48.9988032 63.0312967,49.5355236 L59.85921,51.2467467 C58.8550368,51.7834672 58.4891326,53.0125979 59.0379889,53.9849769 L62.4948206,60.1770643 C63.0436769,61.1631003 64.2872009,61.5181825 65.291374,60.9828278 L68.48547,59.2729704 C69.4786385,58.7348843 70.9752692,58.9042312 71.9202924,59.5187965 C72.3536,59.7987652 72.7992879,60.055517 73.2559803,60.2890518 C74.2587779,60.8162123 75.1377733,62.0234918 75.1377733,63.1420008 L75.1377733,66.6859944 C75.1377733,67.801772 76.0621628,68.7072316 77.1915137,68.7072316 L84.4023023,68.7072316 C85.5316532,68.7072316 86.4560428,67.801772 86.4560428,66.6859944 L86.4560428,63.1283438 C86.4560428,62.0112005 87.3226579,60.8025553 88.3392113,60.2890518 C88.6913597,60.0992194 89.0462593,59.8984614 89.3887786,59.6867777 C90.3475576,59.0940636 91.8538174,58.9615906 92.8483615,59.5201622 L95.2776351,60.8831317 C96.2584234,61.443069 97.5253323,61.1071066 98.0851932,60.1456532 L101.678207,54.0204851 C102.238068,53.0590317 101.906554,51.8189754 100.912009,51.2699636 L98.4731067,49.8947029 C97.4909428,49.3347656 96.8636785,48.0059387 96.8966924,46.8874297 C96.9104482,46.630678 96.9104482,46.3739262 96.9104482,46.1158088 C96.8829366,45.0068597 97.5445904,43.6766671 98.5487636,43.1399467 Z M80.7817766,53.3799714 C76.8132293,53.3799714 73.604002,50.2361281 73.604002,46.3493436 C73.604002,42.4516335 76.8132293,39.3091559 80.7817766,39.3091559 C84.7640798,39.3091559 87.9733071,42.4516335 87.9733071,46.3493436 C87.9719315,50.2361281 84.7627042,53.3799714 80.7817766,53.3799714 Z" id="section2-icon-1" sketch:type="MSShapeGroup"></path>
            </g>
        </g>
    </g>
</svg>