<?xml version="1.0" encoding="utf-8"?>
<!-- Generator: Adobe Illustrator 17.1.0, SVG Export Plug-In . SVG Version: 6.00 Build 0)  -->
<!DOCTYPE svg PUBLIC "-//W3C//DTD SVG 1.1//EN" "http://www.w3.org/Graphics/SVG/1.1/DTD/svg11.dtd">
<svg version="1.1" xmlns="http://www.w3.org/2000/svg" xmlns:xlink="http://www.w3.org/1999/xlink" x="0px" y="0px"
	 viewBox="0 0 144 144" enable-background="new 0 0 144 144" xml:space="preserve">
<g id="back">
</g>
<g id="illustration">
	<circle fill="#82C250" cx="72" cy="72" r="72"/>
	<g>
		<path fill="#FFFFFF" d="M82.304,54h5v3.518c0,1.381,1.119,2.5,2.5,2.5c1.381,0,2.5-1.119,2.5-2.5V54h4c1.381,0,2.5-1.119,2.5-2.5
			c0-1.381-1.119-2.5-2.5-2.5h-4v-5.482c0-1.381-1.119-2.5-2.5-2.5c-1.381,0-2.5,1.119-2.5,2.5V49h-5c-1.381,0-2.5,1.119-2.5,2.5
			C79.804,52.881,80.923,54,82.304,54z"/>
		<path fill="#FFFFFF" d="M96.304,102h-14c-1.381,0-2.5,1.119-2.5,2.5c0,1.381,1.119,2.5,2.5,2.5h14c1.381,0,2.5-1.119,2.5-2.5
			C98.804,103.119,97.684,102,96.304,102z"/>
		<path fill="#FFFFFF" d="M55.72,26.768c-7.398,0-13.417,6.168-13.417,13.75v75c0,0.818,0.399,1.779,1.006,2.235
			c0.456,0.608,1.176,1.247,1.994,1.247h9c1.381,0,2.5-1.119,2.5-2.5c0-1.381-1.119-2.5-2.5-2.5h-7V40.518
			c0-4.825,3.775-8.75,8.417-8.75c4.733,0,8.583,3.925,8.583,8.75V49h-7c-1.381,0-2.5,1.119-2.5,2.5c0,1.381,1.119,2.5,2.5,2.5h7v8
			h-7c-1.381,0-2.5,1.119-2.5,2.5c0,1.381,1.119,2.5,2.5,2.5h7v8h-7c-1.381,0-2.5,1.119-2.5,2.5c0,1.381,1.119,2.5,2.5,2.5h7v8h-7
			c-1.381,0-2.5,1.119-2.5,2.5c0,1.381,1.119,2.5,2.5,2.5h7v8h-7c-1.381,0-2.5,1.119-2.5,2.5c0,1.381,1.119,2.5,2.5,2.5h7v6.518
			c0,1.381,1.119,2.5,2.5,2.5c1.381,0,2.5-1.119,2.5-2.5v-72C69.304,32.936,63.21,26.768,55.72,26.768z"/>
	</g>
</g>
</svg>
