<?xml version="1.0" encoding="UTF-8" standalone="no"?>
<svg width="131px" height="256px" viewBox="0 0 131 256" version="1.1" xmlns="http://www.w3.org/2000/svg" xmlns:xlink="http://www.w3.org/1999/xlink" xmlns:sketch="http://www.bohemiancoding.com/sketch/ns">
    <!-- Generator: Sketch 3.1.1 (8761) - http://www.bohemiancoding.com/sketch -->
    <title>tuchphone</title>
    <desc>Created with Sketch.</desc>
    <defs></defs>
    <g id="Page" stroke="none" stroke-width="1" fill="none" fill-rule="evenodd" sketch:type="MSPage">
        <g id="Desktop-HD-2" sketch:type="MSArtboardGroup" transform="translate(-655.000000, -3028.000000)" fill="#82C250">
            <path d="M665.042953,3213.82015 L665.042953,3050.75147 L769.083678,3050.75147 L769.083678,3176.65612 L779.126631,3176.65612 L779.126631,3042.34178 C779.126631,3034.45592 772.630763,3028 764.688995,3028 L669.437636,3028 C661.495868,3028 655,3034.45592 655,3042.34178 L655,3226.02411 C655,3233.90996 661.495868,3240.35881 669.437636,3240.35881 L695.278654,3240.35881 L681.03333,3213.81307 L665.042953,3213.82015 L665.042953,3213.82015 Z M701.82438,3038.34222 L732.302251,3038.34222 C733.26381,3038.34222 734.040181,3039.11381 734.040181,3040.08362 C734.040181,3041.03927 733.26381,3041.81086 732.302251,3041.81086 L701.82438,3041.81086 C700.862821,3041.81086 700.072205,3041.03927 700.072205,3040.08362 C700.072205,3039.11381 700.869943,3038.34222 701.82438,3038.34222 L701.82438,3038.34222 Z M786,3196.05928 L786,3194.28957 C786,3190.33956 782.773434,3187.12576 778.784743,3187.12576 L778.015496,3187.12576 C774.019682,3187.12576 770.800239,3190.33956 770.800239,3194.28249 L770.800239,3196.05928 L770.800239,3202.36655 L768.015278,3202.36655 L768.015278,3196.05928 L768.015278,3194.28249 C768.015278,3190.33956 764.795835,3187.12576 760.814267,3187.12576 L760.023652,3187.12576 C756.049206,3187.12576 752.815518,3190.33956 752.815518,3194.28249 L752.815518,3202.36655 L750.030557,3202.36655 L750.030557,3194.28249 C750.030557,3190.33956 746.803991,3187.12576 742.822423,3187.12576 L742.03893,3187.12576 C738.050239,3187.12576 734.830796,3190.33956 734.830796,3194.28249 L734.830796,3196.05928 L734.830796,3202.36655 L732.530176,3202.36655 L732.530176,3183.43059 C747.41654,3179.60093 758.499402,3166.25727 758.499402,3150.28736 C758.499402,3131.33016 742.986244,3115.91948 723.926,3115.91948 C704.865757,3115.91948 689.352599,3131.33724 689.352599,3150.28736 C689.352599,3166.951 701.36853,3180.85389 717.230698,3183.96859 L717.230698,3202.38779 L717.230698,3210.91074 L717.230698,3228.12653 C709.538223,3219.97876 704.887125,3210.90366 699.908384,3209.77104 C693.47662,3208.29156 688.049152,3213.20429 692.493693,3221.72724 C696.945357,3230.24311 718.242116,3267.20893 718.270607,3267.25141 C721.091181,3274.04712 730.165452,3284.00708 751.604665,3284 C785.985755,3284.00708 785.985755,3253.51133 785.985755,3253.51133 L785.985755,3209.49496 C785.985755,3209.46665 786,3209.45249 786,3209.42418 L786,3196.05928 L786,3196.05928 L786,3196.05928 Z M725.272184,3148.31235 L724.488691,3148.30527 C720.478632,3148.30527 717.230698,3151.53324 717.230698,3155.52571 L717.230698,3163.47528 C712.36592,3161.02599 708.996901,3156.07079 708.996901,3150.29443 C708.996901,3142.11835 715.692203,3135.45714 723.926,3135.45714 C732.159798,3135.45714 738.8551,3142.11127 738.8551,3150.29443 C738.8551,3155.27795 736.3408,3159.67393 732.537299,3162.3639 L732.537299,3155.53279 C732.537299,3151.53324 729.296488,3148.30527 725.272184,3148.31235 L725.272184,3148.31235 Z M692.91393,3150.28736 C692.91393,3133.29101 706.824489,3119.45891 723.926,3119.45891 C741.027512,3119.45891 754.938071,3133.29101 754.938071,3150.28736 C754.938071,3164.29643 745.429317,3176.00486 732.530176,3179.7425 L732.530176,3170.44796 C740.414963,3167.10673 745.970639,3159.32706 745.970639,3150.28028 C745.970639,3138.19666 736.077262,3128.36412 723.918878,3128.36412 C711.760494,3128.36412 701.867116,3138.19666 701.867116,3150.28028 C701.867116,3160.02787 708.348739,3168.21104 717.223575,3171.04966 L717.223575,3180.33713 C703.34863,3177.27906 692.91393,3164.99015 692.91393,3150.28736 L692.91393,3150.28736 Z" id="tuchphone" sketch:type="MSShapeGroup"></path>
        </g>
    </g>
</svg>