<?xml version="1.0" encoding="utf-8"?>
<!-- Generator: Adobe Illustrator 17.1.0, SVG Export Plug-In . SVG Version: 6.00 Build 0)  -->
<!DOCTYPE svg PUBLIC "-//W3C//DTD SVG 1.1//EN" "http://www.w3.org/Graphics/SVG/1.1/DTD/svg11.dtd">
<svg version="1.1" xmlns="http://www.w3.org/2000/svg" xmlns:xlink="http://www.w3.org/1999/xlink" x="0px" y="0px"
	 viewBox="0 0 144 144" enable-background="new 0 0 144 144" xml:space="preserve">
<g id="back">
</g>
<g id="illustration">
	<circle fill="#82C250" cx="72" cy="72" r="72"/>
	<g>
		<path fill="#FFFFFF" d="M102.905,57.297c-0.106-9.484-5.428-13.12-10.284-15.218c-4.031-1.738-8.664-0.786-11.999,0.408
			c-3.985-4.673-12.057-8.994-20.151-7.795c-11.087,1.643-17.505,11.509-17.754,20.511c-7.629,2.803-12.131,10.387-11.708,17.201
			C31.714,83.751,40.059,90,54.505,90h39c4.453,0,10.725-1.534,14.972-5.84c3.071-3.114,4.595-7.133,4.528-11.945
			C112.905,64.981,109.073,59.522,102.905,57.297z M104.917,80.649C101.749,83.86,96.79,85,93.505,85h-39
			C42.758,85,36.532,80.659,36,72.096c-0.359-5.79,4.366-12.388,11.974-12.982l-0.275-3.511c0.045-6.954,4.948-14.695,13.506-15.963
			c7.688-1.141,15.8,4.763,16.929,8.151l0.114-0.038l0.573,1.013c2.682-1.515,8.19-3.663,11.819-2.096
			c4.319,1.865,7.224,4.527,7.267,10.764l-0.293,3.813c6.418,0.493,10.303,4.62,10.392,11.038
			C108.053,75.709,107.014,78.523,104.917,80.649z"/>
		<path fill="#FFFFFF" d="M87.005,100h-31c-1.381,0-2.5,1.119-2.5,2.5c0,1.381,1.119,2.5,2.5,2.5h31c1.381,0,2.5-1.119,2.5-2.5
			C89.505,101.119,88.386,100,87.005,100z"/>
	</g>
</g>
</svg>
