<?xml version="1.0" encoding="utf-8"?>
<!-- Generator: Adobe Illustrator 17.1.0, SVG Export Plug-In . SVG Version: 6.00 Build 0)  -->
<!DOCTYPE svg PUBLIC "-//W3C//DTD SVG 1.1//EN" "http://www.w3.org/Graphics/SVG/1.1/DTD/svg11.dtd">
<svg version="1.1" xmlns="http://www.w3.org/2000/svg" xmlns:xlink="http://www.w3.org/1999/xlink" x="0px" y="0px"
	 viewBox="0 0 200 200" enable-background="new 0 0 200 200" xml:space="preserve">
<g id="back">
</g>
<g id="illustration">
	<circle fill="#3FA9F5" cx="100" cy="100" r="100"/>
	<g>
		<path fill="#FFFFFF" d="M113.319,136.851c0,7.364-5.97,13.334-13.334,13.334c-7.365,0-13.335-5.97-13.335-13.334
			c0-7.364,5.97-13.335,13.335-13.335C107.349,123.516,113.319,129.486,113.319,136.851z M67.055,95.785
			c8.808-8.772,20.503-13.603,32.93-13.603c12.409,0,24.091,4.82,32.897,13.572c1.959,1.946,5.125,1.937,7.07-0.021
			c1.947-1.959,1.938-5.125-0.021-7.071c-10.691-10.626-24.878-16.479-39.946-16.479c-15.09,0-29.291,5.866-39.986,16.517
			c-1.956,1.949-1.963,5.114-0.015,7.071c0.977,0.981,2.26,1.472,3.543,1.472C64.803,97.242,66.08,96.757,67.055,95.785z
			 M52.68,77.406c12.648-12.611,29.448-19.556,47.305-19.556c17.837,0,34.626,6.934,47.271,19.524
			c1.956,1.947,5.122,1.94,7.07-0.016c1.948-1.957,1.941-5.123-0.016-7.071c-14.532-14.469-33.826-22.437-54.326-22.437
			c-20.522,0-39.83,7.981-54.365,22.474c-1.956,1.95-1.96,5.116-0.011,7.071c0.977,0.979,2.259,1.47,3.541,1.47
			C50.427,78.865,51.704,78.379,52.68,77.406z M81.193,113.932c5.03-4.997,11.704-7.749,18.791-7.749
			c7.071,0,13.734,2.742,18.761,7.72c1.962,1.943,5.127,1.928,7.071-0.035c1.943-1.962,1.927-5.128-0.035-7.071
			c-6.912-6.845-16.074-10.615-25.797-10.615c-9.746,0-18.922,3.784-25.839,10.654c-1.959,1.946-1.969,5.112-0.023,7.071
			c0.978,0.984,2.262,1.476,3.547,1.476C78.943,115.384,80.218,114.9,81.193,113.932z"/>
	</g>
</g>
</svg>
